<svg width="692" height="500" viewBox="0 0 692 500" fill="none" xmlns="http://www.w3.org/2000/svg">
<g clip-path="url(#clip0_448_736)">
<path d="M691 496.043H1C0.734784 496.043 0.480429 495.938 0.292892 495.75C0.105356 495.563 0 495.308 0 495.043C0 494.778 0.105356 494.524 0.292892 494.336C0.480429 494.148 0.734784 494.043 1 494.043H691C691.265 494.043 691.52 494.148 691.707 494.336C691.895 494.524 692 494.778 692 495.043C692 495.308 691.895 495.563 691.707 495.75C691.52 495.938 691.265 496.043 691 496.043Z" fill="#CCCCCC"/>
<path d="M622.704 321.641H216.704C214.98 321.641 213.327 322.326 212.108 323.545C210.889 324.764 210.204 326.417 210.204 328.141C210.204 329.865 210.889 331.519 212.108 332.738C213.327 333.957 214.98 334.641 216.704 334.641H228.204V490.141C228.204 491.865 228.889 493.519 230.108 494.738C231.327 495.957 232.98 496.641 234.704 496.641C236.428 496.641 238.082 495.957 239.301 494.738C240.52 493.519 241.204 491.865 241.204 490.141L241.303 334.641H597.204V490.141C597.204 491.865 597.889 493.519 599.108 494.738C600.327 495.957 601.98 496.641 603.704 496.641C605.428 496.641 607.082 495.957 608.301 494.738C609.52 493.519 610.204 491.865 610.204 490.141V338.069L612.095 334.641H622.704C624.428 334.641 626.082 333.957 627.301 332.738C628.52 331.519 629.204 329.865 629.204 328.141C629.204 326.417 628.52 324.764 627.301 323.545C626.082 322.326 624.428 321.641 622.704 321.641V321.641Z" fill="#CCCCCC"/>
<path d="M441.794 325.043H318.812C316.431 325.04 314.148 324.093 312.464 322.409C310.78 320.726 309.833 318.443 309.83 316.061V248.352C309.833 245.971 310.78 243.688 312.464 242.004C314.148 240.32 316.431 239.373 318.812 239.37H441.794C444.175 239.373 446.458 240.32 448.142 242.004C449.826 243.688 450.773 245.971 450.776 248.352V316.061C450.773 318.443 449.826 320.726 448.142 322.409C446.458 324.093 444.175 325.04 441.794 325.043V325.043Z" fill="#3F3D56"/>
<path d="M441.793 246.283H318.813C318.264 246.284 317.738 246.503 317.351 246.891C316.963 247.279 316.744 247.804 316.743 248.353V316.063C316.744 316.612 316.963 317.138 317.351 317.525C317.739 317.913 318.264 318.132 318.813 318.133H441.793C442.342 318.132 442.868 317.913 443.256 317.525C443.644 317.138 443.862 316.612 443.863 316.063V248.353C443.862 247.804 443.644 247.279 443.256 246.891C442.868 246.503 442.342 246.284 441.793 246.283V246.283Z" fill="white"/>
<path d="M390.792 294.221C390.792 294.221 376.07 290.829 367.972 297.048C359.875 303.268 378.278 317.403 378.278 317.403L390.792 294.221Z" fill="#2F2E41"/>
<path d="M381.024 287.811C388.694 287.811 394.911 281.594 394.911 273.924C394.911 266.255 388.694 260.037 381.024 260.037C373.355 260.037 367.137 266.255 367.137 273.924C367.137 281.594 373.355 287.811 381.024 287.811Z" fill="#A0616A"/>
<path d="M370.286 254.43C371.212 252.858 372.554 251.573 374.165 250.716C375.775 249.859 377.591 249.464 379.412 249.574C381.317 249.813 383.176 250.334 384.928 251.118L394.006 254.66C396.355 255.576 398.928 256.698 399.947 259.005C400.893 261.145 400.187 263.617 399.473 265.846L396.076 276.439C395.7 274.042 395.054 271.694 394.152 269.441C393.234 267.174 391.576 265.283 389.447 264.078C387.089 262.868 384.31 262.893 381.663 263.02C377.913 263.201 373.837 263.678 371.173 266.322C369.759 267.824 368.801 269.696 368.409 271.721C368.023 273.736 367.829 275.782 367.829 277.833C366.291 275.19 364.996 272.414 363.96 269.538C363.107 267.396 362.621 265.126 362.522 262.823C362.433 260.5 363.203 258.226 364.686 256.436C365.439 255.561 366.421 254.914 367.522 254.568C368.623 254.221 369.799 254.189 370.917 254.475L370.286 254.43Z" fill="#2F2E41"/>
<path d="M414.183 306.263C414.053 305.794 413.787 305.374 413.418 305.056C413.05 304.737 412.596 304.534 412.113 304.473C412.081 304.451 412.048 304.431 412.013 304.413L391.282 292.795C390.69 292.463 389.993 292.372 389.335 292.542C388.678 292.711 388.112 293.127 387.753 293.703L382.083 302.883L373.543 294.343L373.408 294.207C372.969 293.769 372.391 293.499 371.773 293.445C371.156 293.391 370.539 293.556 370.031 293.912L352.993 305.843C352.963 305.843 352.933 305.853 352.903 305.853C352.088 305.989 351.343 306.399 350.792 307.015C350.241 307.632 349.917 308.418 349.873 309.243L349.433 318.133H417.473L414.183 306.263Z" fill="#415A80"/>
<path d="M452.158 316.752H439.03C439.03 316.386 438.885 316.034 438.626 315.775C438.367 315.516 438.015 315.37 437.649 315.37H433.503C433.137 315.37 432.785 315.516 432.526 315.775C432.267 316.034 432.121 316.386 432.121 316.752H427.976C427.976 316.386 427.83 316.034 427.571 315.775C427.312 315.516 426.961 315.37 426.594 315.37H422.449C422.082 315.37 421.731 315.516 421.471 315.775C421.212 316.034 421.067 316.386 421.067 316.752H416.921C416.921 316.386 416.776 316.034 416.517 315.775C416.257 315.516 415.906 315.37 415.539 315.37H411.394C411.028 315.37 410.676 315.516 410.417 315.775C410.158 316.034 410.012 316.386 410.012 316.752H405.867C405.867 316.386 405.721 316.034 405.462 315.775C405.203 315.516 404.851 315.37 404.485 315.37H400.34C399.973 315.37 399.622 315.516 399.362 315.775C399.103 316.034 398.958 316.386 398.958 316.752H394.812C394.812 316.386 394.667 316.034 394.408 315.775C394.148 315.516 393.797 315.37 393.43 315.37H389.285C388.918 315.37 388.567 315.516 388.308 315.775C388.049 316.034 387.903 316.386 387.903 316.752H383.758C383.758 316.386 383.612 316.034 383.353 315.775C383.094 315.516 382.742 315.37 382.376 315.37H378.23C377.864 315.37 377.512 315.516 377.253 315.775C376.994 316.034 376.849 316.386 376.849 316.752H372.703C372.703 316.386 372.558 316.034 372.298 315.775C372.039 315.516 371.688 315.37 371.321 315.37H367.176C366.809 315.37 366.458 315.516 366.199 315.775C365.94 316.034 365.794 316.386 365.794 316.752H361.649C361.649 316.386 361.503 316.034 361.244 315.775C360.985 315.516 360.633 315.37 360.267 315.37H356.121C355.755 315.37 355.403 315.516 355.144 315.775C354.885 316.034 354.74 316.386 354.74 316.752H350.594C350.594 316.386 350.448 316.034 350.189 315.775C349.93 315.516 349.579 315.37 349.212 315.37H345.067C344.7 315.37 344.349 315.516 344.09 315.775C343.831 316.034 343.685 316.386 343.685 316.752H339.539C339.539 316.386 339.394 316.034 339.135 315.775C338.876 315.516 338.524 315.37 338.158 315.37H334.012C333.646 315.37 333.294 315.516 333.035 315.775C332.776 316.034 332.63 316.386 332.63 316.752H328.485C328.485 316.386 328.339 316.034 328.08 315.775C327.821 315.516 327.47 315.37 327.103 315.37H322.958C322.591 315.37 322.24 315.516 321.981 315.775C321.721 316.034 321.576 316.386 321.576 316.752H308.449C307.35 316.754 306.298 317.191 305.521 317.969C304.745 318.746 304.31 319.799 304.31 320.898C304.31 321.996 304.745 323.049 305.521 323.827C306.298 324.604 307.35 325.041 308.449 325.043H452.158C453.257 325.043 454.312 324.606 455.089 323.829C455.866 323.051 456.303 321.997 456.303 320.898C456.303 319.798 455.866 318.744 455.089 317.966C454.312 317.189 453.257 316.752 452.158 316.752V316.752Z" fill="#3F3D56"/>
<path d="M287.079 292.678V320.204H218.117C216.269 320.268 214.427 319.96 212.702 319.297C210.976 318.635 209.401 317.631 208.071 316.347C206.741 315.062 205.684 313.523 204.961 311.822C204.239 310.12 203.867 308.29 203.867 306.441C203.867 304.592 204.239 302.763 204.961 301.061C205.684 299.359 206.741 297.82 208.071 296.536C209.401 295.251 210.976 294.248 212.702 293.585C214.427 292.922 216.269 292.614 218.117 292.678H287.079Z" fill="#F2F2F2"/>
<path d="M288.773 319.992C288.773 320.273 288.661 320.542 288.463 320.741C288.264 320.939 287.995 321.051 287.714 321.051H216.889C213.042 321.051 209.353 319.523 206.633 316.803C203.913 314.083 202.385 310.394 202.385 306.547C202.385 302.7 203.913 299.011 206.633 296.291C209.353 293.571 213.042 292.043 216.889 292.043H287.714C287.995 292.043 288.264 292.155 288.463 292.353C288.661 292.552 288.773 292.821 288.773 293.102C288.773 293.383 288.661 293.652 288.463 293.85C288.264 294.049 287.995 294.16 287.714 294.16H216.889C213.605 294.163 210.458 295.47 208.137 297.792C205.817 300.115 204.513 303.264 204.513 306.547C204.513 309.83 205.817 312.979 208.137 315.302C210.458 317.624 213.605 318.931 216.889 318.934H287.714C287.995 318.934 288.264 319.045 288.463 319.244C288.661 319.442 288.773 319.712 288.773 319.992V319.992Z" fill="#415A80"/>
<path d="M287.079 299.03H212.971C212.943 299.031 212.916 299.025 212.89 299.015C212.864 299.004 212.84 298.989 212.821 298.969C212.801 298.949 212.785 298.926 212.774 298.9C212.764 298.874 212.758 298.847 212.758 298.819C212.758 298.791 212.764 298.763 212.774 298.737C212.785 298.711 212.801 298.688 212.821 298.668C212.84 298.649 212.864 298.633 212.89 298.623C212.916 298.612 212.943 298.607 212.971 298.607H287.079C287.135 298.607 287.188 298.63 287.228 298.669C287.267 298.709 287.289 298.763 287.289 298.819C287.289 298.875 287.267 298.928 287.228 298.968C287.188 299.008 287.135 299.03 287.079 299.03V299.03Z" fill="#CCCCCC"/>
<path d="M287.079 304.112H212.971C212.943 304.112 212.916 304.107 212.89 304.096C212.864 304.086 212.84 304.07 212.821 304.051C212.801 304.031 212.785 304.007 212.774 303.982C212.764 303.956 212.758 303.928 212.758 303.9C212.758 303.872 212.764 303.845 212.774 303.819C212.785 303.793 212.801 303.77 212.821 303.75C212.84 303.73 212.864 303.715 212.89 303.704C212.916 303.694 212.943 303.688 212.971 303.689H287.079C287.135 303.689 287.188 303.711 287.228 303.751C287.267 303.791 287.289 303.844 287.289 303.9C287.289 303.956 287.267 304.01 287.228 304.05C287.188 304.089 287.135 304.112 287.079 304.112V304.112Z" fill="#CCCCCC"/>
<path d="M287.079 309.194H212.971C212.943 309.194 212.916 309.189 212.89 309.178C212.864 309.167 212.84 309.152 212.821 309.132C212.801 309.113 212.785 309.089 212.774 309.063C212.764 309.038 212.758 309.01 212.758 308.982C212.758 308.954 212.764 308.926 212.774 308.901C212.785 308.875 212.801 308.851 212.821 308.832C212.84 308.812 212.864 308.797 212.89 308.786C212.916 308.775 212.943 308.77 212.971 308.77H287.079C287.135 308.771 287.188 308.793 287.228 308.833C287.267 308.872 287.289 308.926 287.289 308.982C287.289 309.038 287.267 309.092 287.228 309.131C287.188 309.171 287.135 309.193 287.079 309.194V309.194Z" fill="#CCCCCC"/>
<path d="M287.079 314.275H212.971C212.943 314.276 212.916 314.27 212.89 314.26C212.864 314.249 212.84 314.234 212.821 314.214C212.801 314.194 212.785 314.171 212.774 314.145C212.764 314.119 212.758 314.092 212.758 314.064C212.758 314.036 212.764 314.008 212.774 313.982C212.785 313.956 212.801 313.933 212.821 313.913C212.84 313.894 212.864 313.878 212.89 313.868C212.916 313.857 212.943 313.852 212.971 313.852H287.079C287.135 313.852 287.188 313.875 287.228 313.914C287.267 313.954 287.289 314.008 287.289 314.064C287.289 314.12 287.267 314.173 287.228 314.213C287.188 314.253 287.135 314.275 287.079 314.275Z" fill="#CCCCCC"/>
<path d="M274.079 263.678V291.204H205.117C203.269 291.268 201.427 290.96 199.702 290.297C197.976 289.635 196.401 288.631 195.071 287.347C193.741 286.062 192.684 284.523 191.961 282.822C191.239 281.12 190.867 279.29 190.867 277.441C190.867 275.592 191.239 273.763 191.961 272.061C192.684 270.359 193.741 268.82 195.071 267.536C196.401 266.251 197.976 265.248 199.702 264.585C201.427 263.922 203.269 263.614 205.117 263.678H274.079Z" fill="#F2F2F2"/>
<path d="M275.773 290.992C275.773 291.273 275.661 291.542 275.463 291.741C275.264 291.939 274.995 292.051 274.714 292.051H203.889C201.984 292.051 200.098 291.676 198.338 290.947C196.578 290.218 194.98 289.15 193.633 287.803C192.286 286.456 191.218 284.857 190.489 283.097C189.76 281.338 189.385 279.452 189.385 277.547C189.385 275.642 189.76 273.756 190.489 271.997C191.218 270.237 192.286 268.638 193.633 267.291C194.98 265.944 196.578 264.876 198.338 264.147C200.098 263.418 201.984 263.043 203.889 263.043H274.714C274.995 263.043 275.264 263.155 275.463 263.353C275.661 263.552 275.773 263.821 275.773 264.102C275.773 264.383 275.661 264.652 275.463 264.85C275.264 265.049 274.995 265.16 274.714 265.16H203.889C200.605 265.163 197.458 266.47 195.137 268.792C192.817 271.115 191.513 274.264 191.513 277.547C191.513 280.83 192.817 283.979 195.137 286.302C197.458 288.624 200.605 289.931 203.889 289.934H274.714C274.995 289.934 275.264 290.045 275.463 290.244C275.661 290.442 275.773 290.712 275.773 290.992V290.992Z" fill="#3F3D56"/>
<path d="M274.079 270.03H199.971C199.943 270.031 199.916 270.025 199.89 270.015C199.864 270.004 199.84 269.989 199.821 269.969C199.801 269.949 199.785 269.926 199.774 269.9C199.764 269.874 199.758 269.847 199.758 269.819C199.758 269.791 199.764 269.763 199.774 269.737C199.785 269.711 199.801 269.688 199.821 269.668C199.84 269.649 199.864 269.633 199.89 269.623C199.916 269.612 199.943 269.607 199.971 269.607H274.079C274.135 269.607 274.188 269.63 274.228 269.669C274.267 269.709 274.289 269.763 274.289 269.819C274.289 269.875 274.267 269.928 274.228 269.968C274.188 270.008 274.135 270.03 274.079 270.03V270.03Z" fill="#CCCCCC"/>
<path d="M274.079 275.112H199.971C199.943 275.112 199.916 275.107 199.89 275.096C199.864 275.086 199.84 275.07 199.821 275.051C199.801 275.031 199.785 275.007 199.774 274.982C199.764 274.956 199.758 274.928 199.758 274.9C199.758 274.872 199.764 274.845 199.774 274.819C199.785 274.793 199.801 274.77 199.821 274.75C199.84 274.73 199.864 274.715 199.89 274.704C199.916 274.694 199.943 274.688 199.971 274.689H274.079C274.135 274.689 274.188 274.711 274.228 274.751C274.267 274.791 274.289 274.844 274.289 274.9C274.289 274.956 274.267 275.01 274.228 275.05C274.188 275.089 274.135 275.112 274.079 275.112V275.112Z" fill="#CCCCCC"/>
<path d="M274.079 280.194H199.971C199.943 280.194 199.916 280.189 199.89 280.178C199.864 280.167 199.84 280.152 199.821 280.132C199.801 280.113 199.785 280.089 199.774 280.063C199.764 280.038 199.758 280.01 199.758 279.982C199.758 279.954 199.764 279.926 199.774 279.901C199.785 279.875 199.801 279.851 199.821 279.832C199.84 279.812 199.864 279.797 199.89 279.786C199.916 279.775 199.943 279.77 199.971 279.77H274.079C274.135 279.771 274.188 279.793 274.228 279.833C274.267 279.872 274.289 279.926 274.289 279.982C274.289 280.038 274.267 280.092 274.228 280.131C274.188 280.171 274.135 280.193 274.079 280.194V280.194Z" fill="#CCCCCC"/>
<path d="M274.079 285.275H199.971C199.943 285.276 199.916 285.27 199.89 285.26C199.864 285.249 199.84 285.234 199.821 285.214C199.801 285.194 199.785 285.171 199.774 285.145C199.764 285.119 199.758 285.092 199.758 285.064C199.758 285.036 199.764 285.008 199.774 284.982C199.785 284.956 199.801 284.933 199.821 284.913C199.84 284.894 199.864 284.878 199.89 284.868C199.916 284.857 199.943 284.852 199.971 284.852H274.079C274.135 284.852 274.188 284.875 274.228 284.914C274.267 284.954 274.289 285.008 274.289 285.064C274.289 285.12 274.267 285.173 274.228 285.213C274.188 285.253 274.135 285.275 274.079 285.275Z" fill="#CCCCCC"/>
<path d="M354.303 418.043V394.043C354.303 392.982 353.882 391.965 353.132 391.215C352.381 390.465 351.364 390.043 350.303 390.043H259.303C258.242 390.043 257.225 390.465 256.475 391.215C255.725 391.965 255.303 392.982 255.303 394.043V418.043H354.303Z" fill="#CCCCCC"/>
<path d="M354.303 427.043H255.303V458.043H354.303V427.043Z" fill="#CCCCCC"/>
<path d="M255.303 467.043V491.043C255.303 492.104 255.725 493.121 256.475 493.871C257.225 494.622 258.242 495.043 259.303 495.043H350.303C351.364 495.043 352.381 494.622 353.132 493.871C353.882 493.121 354.303 492.104 354.303 491.043V467.043H255.303Z" fill="#CCCCCC"/>
<path d="M304.303 408.043C305.96 408.043 307.303 406.7 307.303 405.043C307.303 403.386 305.96 402.043 304.303 402.043C302.646 402.043 301.303 403.386 301.303 405.043C301.303 406.7 302.646 408.043 304.303 408.043Z" fill="white"/>
<path d="M304.303 448.043C305.96 448.043 307.303 446.7 307.303 445.043C307.303 443.386 305.96 442.043 304.303 442.043C302.646 442.043 301.303 443.386 301.303 445.043C301.303 446.7 302.646 448.043 304.303 448.043Z" fill="white"/>
<path d="M304.464 487.196C306.121 487.196 307.464 485.853 307.464 484.196C307.464 482.539 306.121 481.196 304.464 481.196C302.807 481.196 301.464 482.539 301.464 484.196C301.464 485.853 302.807 487.196 304.464 487.196Z" fill="white"/>
<path d="M343.079 362.678V390.204H274.117C272.269 390.268 270.427 389.96 268.702 389.297C266.976 388.635 265.401 387.631 264.071 386.347C262.741 385.062 261.684 383.523 260.961 381.822C260.239 380.12 259.867 378.29 259.867 376.441C259.867 374.592 260.239 372.763 260.961 371.061C261.684 369.359 262.741 367.82 264.071 366.536C265.401 365.251 266.976 364.248 268.702 363.585C270.427 362.922 272.269 362.614 274.117 362.678H343.079Z" fill="#F2F2F2"/>
<path d="M344.773 389.992C344.773 390.273 344.661 390.542 344.463 390.741C344.264 390.939 343.995 391.051 343.714 391.051H272.889C270.983 391.053 269.096 390.679 267.334 389.95C265.573 389.222 263.973 388.154 262.625 386.807C261.277 385.46 260.207 383.861 259.478 382.1C258.748 380.34 258.373 378.453 258.373 376.547C258.373 374.641 258.748 372.754 259.478 370.994C260.207 369.233 261.277 367.634 262.625 366.287C263.973 364.94 265.573 363.872 267.334 363.144C269.096 362.415 270.983 362.042 272.889 362.043H343.714C343.995 362.043 344.264 362.155 344.463 362.353C344.661 362.552 344.773 362.821 344.773 363.102C344.773 363.383 344.661 363.652 344.463 363.85C344.264 364.049 343.995 364.16 343.714 364.16H272.889C269.605 364.163 266.458 365.47 264.137 367.792C261.817 370.115 260.513 373.264 260.513 376.547C260.513 379.83 261.817 382.979 264.137 385.302C266.458 387.624 269.605 388.931 272.889 388.934H343.714C343.995 388.934 344.264 389.045 344.463 389.244C344.661 389.442 344.773 389.712 344.773 389.992V389.992Z" fill="#3F3D56"/>
<path d="M343.079 369.03H268.971C268.943 369.031 268.916 369.025 268.89 369.015C268.864 369.004 268.84 368.989 268.821 368.969C268.801 368.949 268.785 368.926 268.774 368.9C268.764 368.874 268.758 368.847 268.758 368.819C268.758 368.791 268.764 368.763 268.774 368.737C268.785 368.711 268.801 368.688 268.821 368.668C268.84 368.649 268.864 368.633 268.89 368.623C268.916 368.612 268.943 368.607 268.971 368.607H343.079C343.135 368.607 343.188 368.63 343.228 368.669C343.267 368.709 343.289 368.763 343.289 368.819C343.289 368.875 343.267 368.928 343.228 368.968C343.188 369.008 343.135 369.03 343.079 369.03V369.03Z" fill="#CCCCCC"/>
<path d="M343.079 374.112H268.971C268.943 374.112 268.916 374.107 268.89 374.096C268.864 374.086 268.84 374.07 268.821 374.051C268.801 374.031 268.785 374.007 268.774 373.982C268.764 373.956 268.758 373.928 268.758 373.9C268.758 373.872 268.764 373.845 268.774 373.819C268.785 373.793 268.801 373.77 268.821 373.75C268.84 373.73 268.864 373.715 268.89 373.704C268.916 373.694 268.943 373.688 268.971 373.689H343.079C343.135 373.689 343.188 373.711 343.228 373.751C343.267 373.791 343.289 373.844 343.289 373.9C343.289 373.956 343.267 374.01 343.228 374.05C343.188 374.089 343.135 374.112 343.079 374.112V374.112Z" fill="#CCCCCC"/>
<path d="M343.079 379.194H268.971C268.943 379.194 268.916 379.189 268.89 379.178C268.864 379.167 268.84 379.152 268.821 379.132C268.801 379.113 268.785 379.089 268.774 379.063C268.764 379.038 268.758 379.01 268.758 378.982C268.758 378.954 268.764 378.926 268.774 378.901C268.785 378.875 268.801 378.851 268.821 378.832C268.84 378.812 268.864 378.797 268.89 378.786C268.916 378.775 268.943 378.77 268.971 378.77H343.079C343.135 378.771 343.188 378.793 343.228 378.833C343.267 378.872 343.289 378.926 343.289 378.982C343.289 379.038 343.267 379.092 343.228 379.131C343.188 379.171 343.135 379.193 343.079 379.194V379.194Z" fill="#CCCCCC"/>
<path d="M343.079 384.275H268.971C268.943 384.276 268.916 384.27 268.89 384.26C268.864 384.249 268.84 384.234 268.821 384.214C268.801 384.194 268.785 384.171 268.774 384.145C268.764 384.119 268.758 384.092 268.758 384.064C268.758 384.036 268.764 384.008 268.774 383.982C268.785 383.956 268.801 383.933 268.821 383.913C268.84 383.894 268.864 383.878 268.89 383.868C268.916 383.857 268.943 383.852 268.971 383.852H343.079C343.135 383.852 343.188 383.875 343.228 383.914C343.267 383.954 343.289 384.008 343.289 384.064C343.289 384.12 343.267 384.173 343.228 384.213C343.188 384.253 343.135 384.275 343.079 384.275V384.275Z" fill="#CCCCCC"/>
<path d="M250.11 183.021V7.52144C250.113 5.52733 250.906 3.61554 252.316 2.20549C253.726 0.79544 255.638 0.00226824 257.632 0H396.36C398.354 0.00228144 400.266 0.795458 401.676 2.20551C403.086 3.61555 403.879 5.52733 403.882 7.52144V183.021C403.88 185.016 403.086 186.927 401.676 188.337C400.266 189.747 398.354 190.541 396.36 190.543H257.632C255.638 190.541 253.726 189.747 252.316 188.337C250.906 186.927 250.113 185.016 250.11 183.021V183.021ZM257.632 1.67143C256.081 1.67317 254.594 2.29007 253.497 3.38678C252.4 4.48349 251.784 5.97046 251.782 7.52144V183.021C251.784 184.572 252.4 186.059 253.497 187.156C254.594 188.253 256.081 188.87 257.632 188.871H396.36C397.911 188.87 399.398 188.253 400.495 187.156C401.592 186.059 402.209 184.572 402.21 183.021V7.52144C402.209 5.97046 401.592 4.48349 400.495 3.38678C399.398 2.29007 397.911 1.67317 396.36 1.67143H257.632Z" fill="#E6E6E6"/>
<path d="M334.776 80.5977V44.562C334.777 43.565 335.173 42.6091 335.878 41.904C336.583 41.199 337.539 40.8024 338.536 40.8013H369.073C370.07 40.8024 371.026 41.199 371.731 41.904C372.436 42.6091 372.833 43.565 372.834 44.562V80.5977C372.833 81.5948 372.436 82.5507 371.731 83.2557C371.026 83.9607 370.07 84.3573 369.073 84.3584H338.536C337.539 84.3573 336.583 83.9607 335.878 83.2557C335.173 82.5507 334.777 81.5948 334.776 80.5977V80.5977Z" fill="#415A80"/>
<path d="M275.44 97.312V61.2764C275.441 60.2793 275.837 59.3234 276.542 58.6183C277.248 57.9133 278.203 57.5168 279.201 57.5157H309.737C310.735 57.5168 311.69 57.9133 312.396 58.6183C313.101 59.3234 313.497 60.2793 313.498 61.2764V97.312C313.497 98.3091 313.101 99.265 312.396 99.9701C311.69 100.675 310.735 101.072 309.737 101.073H279.201C278.203 101.072 277.248 100.675 276.542 99.97C275.837 99.265 275.441 98.3091 275.44 97.312V97.312Z" fill="#CCCCCC"/>
<path d="M323.076 148.291V112.255C323.077 111.258 323.473 110.302 324.178 109.597C324.883 108.892 325.839 108.495 326.836 108.494H357.373C358.37 108.495 359.326 108.892 360.031 109.597C360.736 110.302 361.133 111.258 361.134 112.255V148.291C361.133 149.288 360.736 150.244 360.031 150.949C359.326 151.654 358.37 152.05 357.373 152.051H326.836C325.839 152.05 324.883 151.654 324.178 150.949C323.473 150.244 323.077 149.288 323.076 148.291V148.291Z" fill="#FF6584"/>
<path d="M505.563 313.043H474.143C473.845 313.043 473.551 313.111 473.283 313.243L465.353 317.213C465.092 317.324 464.869 317.509 464.713 317.746C464.557 317.982 464.473 318.26 464.473 318.543C464.473 318.827 464.557 319.104 464.713 319.34C464.869 319.577 465.092 319.762 465.353 319.873L473.283 323.843C473.551 323.975 473.845 324.043 474.143 324.043H505.563C505.996 324.068 506.421 323.922 506.747 323.635C507.073 323.349 507.273 322.946 507.303 322.513V314.573C507.273 314.14 507.073 313.737 506.747 313.451C506.421 313.165 505.996 313.018 505.563 313.043Z" fill="#3F3D56"/>
<path d="M507.303 314.573V322.513C507.273 322.946 507.073 323.349 506.747 323.635C506.421 323.922 505.996 324.068 505.563 324.043H499.303V313.043H505.563C505.996 313.018 506.421 313.165 506.747 313.451C507.073 313.737 507.273 314.14 507.303 314.573V314.573Z" fill="#415A80"/>
<path d="M505.326 253.643C506.75 253.029 508.287 252.722 509.836 252.743C511.386 252.765 512.914 253.113 514.32 253.766C515.726 254.419 516.978 255.361 517.994 256.532C519.011 257.702 519.768 259.074 520.217 260.557C520.357 261.028 520.464 261.507 520.537 261.992L564.475 283.781L574.644 277.042L587.295 291.607L571.769 304.217C569.902 305.722 567.6 306.584 565.204 306.677C562.808 306.769 560.446 306.087 558.468 304.73L513.889 273.902C513.557 274.043 513.218 274.166 512.874 274.272C511.39 274.721 509.828 274.851 508.291 274.654C506.753 274.457 505.274 273.938 503.952 273.129C502.629 272.321 501.492 271.242 500.615 269.964C499.738 268.686 499.141 267.236 498.864 265.711C498.781 265.269 498.727 264.821 498.701 264.372C498.577 262.121 499.146 259.886 500.331 257.968C501.515 256.05 503.259 254.54 505.326 253.643V253.643Z" fill="#FFB8B8"/>
<path d="M596.841 387.792H548.831C548.831 389.172 499.351 390.292 499.351 390.292C498.575 390.876 497.867 391.547 497.241 392.292C495.362 394.533 494.335 397.366 494.341 400.292V402.292C494.342 405.606 495.66 408.785 498.004 411.129C500.348 413.473 503.526 414.79 506.841 414.792H596.841C600.155 414.789 603.333 413.471 605.677 411.127C608.02 408.784 609.338 405.606 609.341 402.292V400.292C609.337 396.978 608.018 393.801 605.675 391.458C603.332 389.115 600.155 387.796 596.841 387.792V387.792Z" fill="#3F3D56"/>
<path d="M544.617 498.295H557.617V414.295H544.617V498.295Z" fill="#3F3D56"/>
<path d="M507.617 497.838C507.617 499.243 527.317 498.382 551.617 498.382C575.918 498.382 595.617 499.243 595.617 497.838C595.617 496.434 575.918 485.295 551.617 485.295C527.317 485.295 507.617 496.434 507.617 497.838Z" fill="#3F3D56"/>
<path d="M519.353 487.993L507.094 487.992L501.261 456.195L519.355 456.196L519.353 487.993Z" fill="#FFB8B8"/>
<path d="M522.48 499.877L482.949 499.875V499.375C482.949 497.355 483.347 495.354 484.12 493.487C484.894 491.62 486.027 489.924 487.456 488.495C488.885 487.067 490.581 485.933 492.448 485.16C494.314 484.387 496.315 483.989 498.336 483.989H498.337L522.481 483.99L522.48 499.877Z" fill="#2F2E41"/>
<path d="M501.017 468.275L476.576 413.467C474.535 408.848 474.31 403.629 475.944 398.851C477.578 394.073 480.952 390.085 485.394 387.683L538.408 359.255L562.599 357.198L584.914 355.169L585.074 355.442C585.28 355.79 590.078 364.077 586.835 373.164C584.375 380.056 577.976 385.44 567.816 389.166C544.102 397.861 516.707 405.293 506.03 408.084C505.558 408.204 505.117 408.423 504.736 408.727C504.355 409.03 504.042 409.411 503.819 409.843C503.595 410.271 503.461 410.741 503.428 411.222C503.394 411.704 503.46 412.187 503.622 412.642L526.329 463.657C526.566 464.304 526.651 464.997 526.578 465.682C526.506 466.367 526.276 467.026 525.908 467.609C525.54 468.192 525.043 468.682 524.456 469.042C523.868 469.402 523.206 469.622 522.52 469.686L505.553 470.922C505.409 470.935 505.266 470.942 505.123 470.942C504.254 470.942 503.404 470.69 502.675 470.216C501.946 469.743 501.37 469.069 501.017 468.275V468.275Z" fill="#2F2E41"/>
<path d="M525.353 487.993L513.094 487.992L507.261 456.195L525.355 456.196L525.353 487.993Z" fill="#FFB8B8"/>
<path d="M528.48 499.877L488.949 499.875V499.375C488.949 497.355 489.347 495.354 490.12 493.487C490.894 491.62 492.027 489.924 493.456 488.495C494.885 487.067 496.581 485.933 498.448 485.16C500.314 484.387 502.315 483.989 504.336 483.989H504.337L528.481 483.99L528.48 499.877Z" fill="#2F2E41"/>
<path d="M508.017 471.275L483.576 416.467C481.535 411.848 481.31 406.629 482.944 401.851C484.578 397.073 487.952 393.085 492.394 390.683L545.408 362.255L569.599 360.198L591.914 358.169L592.074 358.442C592.28 358.79 597.078 367.077 593.835 376.164C591.375 383.056 584.976 388.44 574.816 392.166C551.102 400.861 523.707 408.293 513.03 411.084C512.558 411.204 512.117 411.423 511.736 411.727C511.355 412.03 511.042 412.411 510.819 412.843C510.595 413.271 510.461 413.741 510.428 414.222C510.394 414.704 510.46 415.187 510.622 415.642L533.329 466.657C533.566 467.304 533.651 467.997 533.578 468.682C533.506 469.367 533.276 470.026 532.908 470.609C532.54 471.192 532.043 471.682 531.456 472.042C530.868 472.402 530.206 472.622 529.52 472.686L512.553 473.922C512.409 473.935 512.266 473.942 512.123 473.942C511.254 473.942 510.404 473.69 509.675 473.216C508.946 472.743 508.37 472.069 508.017 471.275V471.275Z" fill="#2F2E41"/>
<path d="M495.835 303.844C485.564 290.183 477.445 275.03 471.759 258.913C471.43 257.948 471.453 256.899 471.825 255.95C472.197 255.002 472.894 254.216 473.791 253.733L508.936 234.902C509.505 234.595 510.136 234.421 510.781 234.395C511.427 234.369 512.07 234.49 512.662 234.75C513.264 235.012 513.799 235.408 514.226 235.908C514.652 236.408 514.959 236.998 515.123 237.634C519.214 253.166 526.903 267.516 537.569 279.525C538.008 280.014 538.329 280.596 538.509 281.228C538.689 281.86 538.723 282.525 538.607 283.172C538.496 283.808 538.241 284.411 537.861 284.934C537.482 285.457 536.988 285.886 536.417 286.19L501.272 305.021C500.373 305.501 499.333 305.645 498.338 305.43C497.342 305.214 496.455 304.652 495.835 303.844V303.844Z" fill="#CCCCCC"/>
<path d="M498.233 302.042C498.422 302.278 498.687 302.441 498.984 302.502C499.28 302.563 499.588 302.519 499.855 302.377L535 283.545C535.171 283.456 535.319 283.329 535.432 283.173C535.545 283.018 535.621 282.838 535.653 282.648C535.69 282.448 535.679 282.242 535.623 282.046C535.567 281.85 535.466 281.67 535.328 281.52C524.348 269.158 516.432 254.384 512.221 238.395C512.172 238.198 512.079 238.014 511.947 237.859C511.815 237.703 511.65 237.581 511.463 237.5C511.287 237.421 511.095 237.385 510.902 237.393C510.71 237.401 510.522 237.453 510.353 237.546L475.208 256.378C474.942 256.521 474.734 256.754 474.621 257.034C474.508 257.315 474.496 257.626 474.588 257.915C480.172 273.744 488.146 288.625 498.233 302.042V302.042Z" fill="white"/>
<path d="M612.593 298.821L585.068 309.28L578.348 290.614C577.456 288.135 577.468 285.421 578.383 282.95C579.299 280.48 581.058 278.413 583.35 277.114V277.114C585.668 275.8 588.38 275.359 590.996 275.869C593.611 276.38 595.958 277.809 597.612 279.899L612.593 298.821Z" fill="#415A80"/>
<path d="M542.583 372.781C542.003 372.371 541.518 371.843 541.159 371.231C540.8 370.619 540.575 369.938 540.499 369.232C536.974 336.322 539.429 310.568 548.005 290.497C549.516 287.035 551.791 283.961 554.66 281.505C557.53 279.049 560.919 277.276 564.572 276.318L586.821 275.194L586.937 275.25C591.957 277.709 596.052 281.721 598.613 286.69C601.175 291.66 602.066 297.322 601.156 302.839C594 321.702 588.008 341.341 592.577 357.185C592.769 357.847 592.825 358.541 592.742 359.226C592.659 359.91 592.438 360.571 592.094 361.168C591.759 361.745 591.311 362.248 590.775 362.645C590.239 363.042 589.627 363.325 588.978 363.477L546.599 373.558C545.913 373.721 545.2 373.737 544.507 373.603C543.815 373.469 543.159 373.188 542.583 372.781Z" fill="#415A80"/>
<path d="M579.396 266.884C592.961 266.884 603.957 255.888 603.957 242.323C603.957 228.759 592.961 217.762 579.396 217.762C565.831 217.762 554.835 228.759 554.835 242.323C554.835 255.888 565.831 266.884 579.396 266.884Z" fill="#FFB8B8"/>
<path d="M511.243 261.776L492.102 270.226C491.374 270.546 490.548 270.565 489.807 270.277C489.065 269.99 488.468 269.42 488.146 268.693L487.672 267.62C487.352 266.892 487.333 266.067 487.621 265.325C487.908 264.584 488.478 263.986 489.205 263.664L508.347 255.215C509.075 254.894 509.9 254.876 510.642 255.163C511.384 255.451 511.981 256.02 512.303 256.748L512.776 257.82C513.097 258.548 513.115 259.374 512.828 260.115C512.541 260.857 511.971 261.454 511.243 261.776V261.776Z" fill="#CCCCCC"/>
<path d="M518.243 274.776L499.102 283.226C498.374 283.546 497.548 283.565 496.807 283.277C496.065 282.99 495.468 282.42 495.146 281.693L494.672 280.62C494.352 279.892 494.333 279.067 494.621 278.325C494.908 277.584 495.478 276.986 496.205 276.664L515.347 268.215C516.075 267.894 516.9 267.876 517.642 268.163C518.384 268.451 518.981 269.02 519.303 269.748L519.776 270.82C520.097 271.548 520.115 272.374 519.828 273.115C519.541 273.857 518.971 274.454 518.243 274.776V274.776Z" fill="#CCCCCC"/>
<path d="M533.005 325.553L490.331 291.887C489.991 292.007 489.645 292.109 489.295 292.193C487.788 292.545 486.225 292.577 484.706 292.285C483.187 291.994 481.746 291.386 480.477 290.502C479.199 289.616 478.126 288.468 477.328 287.135C476.53 285.801 476.026 284.312 475.85 282.768C475.564 280.3 476.12 277.807 477.429 275.694C478.738 273.582 480.722 271.973 483.059 271.13C484.518 270.607 486.071 270.398 487.617 270.516C489.162 270.635 490.665 271.079 492.027 271.819C493.389 272.559 494.58 273.578 495.52 274.81C496.461 276.042 497.131 277.459 497.486 278.967C497.596 279.446 497.672 279.931 497.715 280.42L540.196 304.927L550.768 298.84L562.479 314.172L546.065 325.872C544.143 327.23 541.835 327.933 539.482 327.875C537.13 327.818 534.858 327.004 533.005 325.553V325.553Z" fill="#FFB8B8"/>
<path d="M567.686 318.947L543.337 302.39L554.78 286.183C556.3 284.031 558.531 282.485 561.08 281.819C563.629 281.153 566.331 281.409 568.709 282.543V282.543C571.114 283.69 573.031 285.659 574.112 288.094C575.193 290.53 575.367 293.272 574.603 295.826L567.686 318.947Z" fill="#415A80"/>
<path d="M570.391 238.665C564.079 242.986 555.79 247.427 549.342 242.826C545.109 239.805 543.775 234.21 545.492 229.301C548.579 220.472 557.061 216.586 565.172 213.606C575.717 209.733 587.198 206.652 598.083 209.426C608.969 212.199 618.589 222.739 616.624 233.799C615.044 242.693 606.654 250.094 607.845 259.048C609.044 268.06 619.179 272.804 628.126 274.415C637.074 276.026 647.087 276.543 653.517 282.97C661.72 291.169 659.672 305.823 651.953 314.48C644.234 323.136 632.586 327.06 621.299 329.727C606.345 333.261 590.17 335.119 575.967 329.253C561.764 323.388 550.712 307.599 554.826 292.794C556.564 286.54 560.658 281.255 564.614 276.109C568.571 270.964 572.578 265.583 574.087 259.27C575.345 254.01 574.414 247.902 570.925 243.955C570.29 243.265 569.891 242.391 569.784 241.459C569.678 240.527 569.869 239.585 570.331 238.769L570.391 238.665Z" fill="#2F2E41"/>
<path d="M109.072 357.998C102.743 360.223 95.9481 360.78 89.3413 359.617C82.7346 358.453 76.5388 355.607 71.3511 351.354C58.1391 340.265 53.9967 321.995 50.6262 305.079C47.3031 288.4 43.9801 271.722 40.657 255.043L61.5286 269.415C76.5383 279.75 91.8861 290.416 102.279 305.386C112.671 320.356 117.208 340.791 108.858 356.989" fill="#E6E6E6"/>
<path d="M107.288 418.577C109.401 403.19 111.573 387.604 110.091 372.052C108.775 358.24 104.561 344.749 95.9821 333.688C91.4284 327.828 85.8874 322.806 79.6083 318.85C77.9709 317.817 76.4639 320.412 78.0941 321.441C88.9589 328.307 97.3624 338.447 102.093 350.397C107.318 363.687 108.157 378.173 107.257 392.291C106.712 400.828 105.558 409.309 104.395 417.779C104.304 418.162 104.361 418.566 104.555 418.909C104.75 419.251 105.067 419.507 105.443 419.625C105.826 419.728 106.235 419.676 106.581 419.48C106.926 419.284 107.18 418.959 107.288 418.577H107.288Z" fill="#F2F2F2"/>
<path d="M86.941 391.348C84.2267 395.474 80.4956 398.831 76.1073 401.096C71.719 403.361 66.8214 404.457 61.8863 404.28C49.2031 403.678 38.6294 394.826 29.1111 386.422L0.957825 361.565L19.5906 360.673C32.9902 360.032 46.7356 359.433 59.4982 363.566C72.2609 367.698 84.0313 377.642 86.365 390.853" fill="#E6E6E6"/>
<path d="M113.258 427.422C103.09 409.431 91.2967 389.436 70.2234 383.045C64.364 381.275 58.22 380.64 52.1223 381.176C50.2005 381.342 50.6804 384.305 52.5987 384.139C62.8198 383.291 73.021 385.989 81.4852 391.781C89.6301 397.325 95.9718 405.033 101.339 413.207C104.627 418.213 107.572 423.432 110.518 428.644C111.459 430.31 114.21 429.108 113.258 427.422V427.422Z" fill="#F2F2F2"/>
<path d="M129.55 446.359C129.207 442.39 127.782 438.59 125.429 435.375C123.077 432.159 119.887 429.651 116.207 428.123V417.722H98.7621V428.45C95.2635 430.054 92.2526 432.556 90.0363 435.702C87.82 438.848 86.4776 442.525 86.1459 446.359L82.0439 494.043H133.652L129.55 446.359Z" fill="#F2F2F2"/>
</g>
<defs>
<clipPath id="clip0_448_736">
<rect width="692" height="499.877" fill="white"/>
</clipPath>
</defs>
</svg>
