<svg width="692" height="454" viewBox="0 0 692 454" fill="none" xmlns="http://www.w3.org/2000/svg">
<g clip-path="url(#clip0_555_23)">
<path d="M342.442 77.0236C354.036 77.0236 363.435 67.6248 363.435 56.0309C363.435 44.4369 354.036 35.0382 342.442 35.0382C330.848 35.0382 321.45 44.4369 321.45 56.0309C321.45 67.6248 330.848 77.0236 342.442 77.0236Z" fill="#FD6584"/>
<path d="M389.425 46.0906C388.833 44.1493 387.686 42.4236 386.126 41.1258C384.566 39.8281 382.66 39.015 380.643 38.7866C380.596 38.7826 380.549 38.7826 380.502 38.7866C380.445 38.7689 380.387 38.7558 380.329 38.7473C373.3 37.8352 365.485 40.0524 360.225 44.8798C358.272 46.6436 356.711 48.7969 355.641 51.201C354.666 49.8692 353.381 48.7951 351.898 48.0718C350.414 47.3484 348.776 46.9976 347.127 47.0497C344.999 47.1904 342.966 47.9838 341.306 49.3219C339.646 50.6599 338.439 52.4775 337.849 54.5267C337.784 54.7771 337.802 55.0417 337.9 55.2811C337.998 55.5205 338.17 55.722 338.392 55.8554C339.024 56.3962 339.776 56.7789 340.585 56.9718C342.323 57.3414 344.076 57.6794 345.829 57.9861C349.257 58.5836 352.704 59.0684 356.168 59.4406C358.456 59.6843 360.749 59.8782 363.048 60.0224C367.796 60.3211 372.569 60.3919 377.325 60.2425C379.684 60.1639 381.948 60.0853 384.103 59.0475C385.672 58.2755 387.014 57.1075 387.994 55.6589C388.918 54.2654 389.524 52.6866 389.771 51.0335C390.019 49.3803 389.9 47.6931 389.425 46.0906Z" fill="#E6E6E6"/>
<path d="M346.238 76.6745C346.198 75.7949 346.051 74.9235 345.798 74.08C345.203 72.1389 344.054 70.4138 342.493 69.1163C340.932 67.8188 339.025 67.0054 337.008 66.776C336.964 66.7721 336.919 66.7721 336.874 66.776C336.815 66.7592 336.755 66.746 336.693 66.7367C332.803 66.2602 328.856 66.666 325.144 67.9239C319.436 69.8344 314.428 73.6869 312.014 79.1904C311.038 77.8578 309.752 76.7832 308.267 76.0599C306.782 75.3365 305.142 74.9862 303.491 75.0392C301.364 75.1799 299.331 75.9733 297.671 77.3113C296.011 78.6494 294.804 80.4669 294.214 82.5162C294.153 82.7666 294.172 83.0299 294.27 83.2685C294.367 83.5071 294.538 83.7088 294.757 83.8449C295.39 84.3842 296.141 84.7667 296.95 84.9613C298.695 85.3308 300.441 85.6689 302.202 85.9755C305.63 86.5731 309.074 87.0579 312.533 87.43C319.561 88.1845 326.633 88.4524 333.698 88.2319C336.049 88.1533 338.321 88.0747 340.475 87.0369C342.043 86.2646 343.381 85.0966 344.359 83.6483C345.737 81.5945 346.398 79.1427 346.238 76.6745Z" fill="#E6E6E6"/>
<path d="M619.646 331.401C619.948 345.714 617.972 359.985 613.794 373.678C613.648 374.176 613.473 374.673 613.297 375.17H527.163C528.394 369.107 530.349 363.213 532.985 357.616C540.153 342.402 551.856 329.382 563.413 316.45C579.329 298.632 594.865 280.961 597.322 257.789C603.631 267.407 608.667 277.802 612.302 288.714C607.851 290.363 603.766 292.868 600.277 296.087C599.312 296.994 598.288 298.311 598.785 299.569C599.253 300.622 600.541 300.973 601.682 301.207C604.432 301.734 607.182 302.26 609.932 302.758C612.097 303.197 614.292 303.606 616.486 304.016C618.415 313.022 619.473 322.192 619.646 331.401Z" fill="#F2F2F2"/>
<path d="M692 321.922C678.19 330.318 669.413 343.309 662.245 357.85C656.007 359.272 650.249 362.297 645.539 366.627C644.544 367.534 643.52 368.851 644.047 370.109C644.486 371.162 645.802 371.513 646.943 371.747C649.664 372.274 652.444 372.801 655.165 373.298C654.901 373.912 654.638 374.556 654.375 375.17H563.091C567.235 369.582 571.824 364.337 576.813 359.488C577.895 358.406 579.007 357.382 580.148 356.329C591.785 345.812 605.146 337.38 619.646 331.401C642.489 321.852 667.468 318.579 692 321.922Z" fill="#F2F2F2"/>
<path d="M578.305 375.171H497.027C496.583 368.662 496.623 362.129 497.144 355.626C500.392 315.456 522.247 277.187 555.221 254.015C551.008 269.024 553.173 283.945 557.561 298.925C556.947 299.13 556.332 299.306 555.777 299.539C551.325 301.188 547.24 303.693 543.752 306.912C542.786 307.819 541.762 309.136 542.26 310.394C542.698 311.447 544.015 311.798 545.156 312.033C547.906 312.559 550.656 313.086 553.377 313.583C555.572 314.022 557.766 314.432 559.96 314.871C560.984 315.046 562.008 315.251 563.032 315.456C563.179 315.807 563.267 316.129 563.413 316.45C568.562 330.64 574.18 344.947 576.813 359.488C577.465 363.137 577.914 366.82 578.159 370.518C578.246 372.069 578.305 373.62 578.305 375.171Z" fill="#F2F2F2"/>
<path d="M135.334 331.401C135.636 345.714 133.661 359.985 129.483 373.678C129.336 374.176 129.161 374.673 128.985 375.17H42.8506C44.0819 369.107 46.0367 363.213 48.6731 357.616C55.841 342.402 67.5441 329.382 79.1009 316.45C95.017 298.632 110.553 280.961 113.011 257.789C119.319 267.407 124.355 277.802 127.99 288.714C123.539 290.363 119.454 292.868 115.966 296.087C115 296.994 113.976 298.311 114.473 299.569C114.941 300.622 116.229 300.973 117.37 301.207C120.12 301.734 122.87 302.26 125.621 302.758C127.786 303.197 129.98 303.606 132.174 304.016C134.103 313.022 135.161 322.192 135.334 331.401Z" fill="#F2F2F2"/>
<path d="M207.688 321.922C193.878 330.318 185.101 343.309 177.933 357.85C171.695 359.272 165.937 362.297 161.227 366.627C160.232 367.534 159.208 368.851 159.735 370.109C160.174 371.162 161.49 371.513 162.631 371.747C165.352 372.274 168.132 372.801 170.853 373.298C170.59 373.912 170.326 374.556 170.063 375.17H78.7791C82.9229 369.582 87.5118 364.337 92.5009 359.488C93.5834 358.406 94.6953 357.382 95.8363 356.329C107.473 345.812 120.834 337.38 135.334 331.401C158.177 321.852 183.156 318.579 207.688 321.922Z" fill="#F2F2F2"/>
<path d="M93.9931 375.171H12.7154C12.2715 368.662 12.3107 362.129 12.8325 355.626C16.0801 315.456 37.9354 277.187 70.9088 254.015C66.6957 269.024 68.8607 283.945 73.2494 298.925C72.6351 299.13 72.0206 299.306 71.4647 299.539C67.0135 301.188 62.9283 303.693 59.4399 306.912C58.4743 307.819 57.4504 309.136 57.9477 310.394C58.3865 311.447 59.7031 311.798 60.8441 312.033C63.5943 312.559 66.3446 313.086 69.0655 313.583C71.2599 314.022 73.4542 314.432 75.6485 314.871C76.6724 315.046 77.6966 315.251 78.7205 315.456C78.8667 315.807 78.9546 316.129 79.1009 316.45C84.2502 330.64 89.8676 344.947 92.5009 359.488C93.1527 363.137 93.602 366.82 93.8468 370.518C93.9346 372.069 93.9931 373.62 93.9931 375.171Z" fill="#F2F2F2"/>
<path d="M396.578 341.047L469.201 347.494L469.979 347.565V37.6836C469.72 37.5027 469.46 37.3219 469.201 37.1411C454.065 26.5544 437.693 17.8572 420.447 11.243L416.736 62.4259L416.398 67.1118L412.726 117.87L411.594 133.485L396.711 339.239L396.578 341.047Z" fill="#E6E6E6"/>
<path d="M216.981 31.9127C216.462 32.2429 215.943 32.5731 215.424 32.9191V347.565L216.981 347.423L288.818 341.047L288.684 339.238L273.801 133.485L272.669 117.87L268.997 67.1118L268.659 62.4259L264.768 8.75067C247.985 14.5682 231.945 22.3424 216.981 31.9127Z" fill="#E6E6E6"/>
<path d="M215.424 32.9191C214.379 33.5952 213.333 34.2871 212.303 34.9868V351.857C212.303 359.775 216.997 366.41 223.271 368.101C224.296 368.378 225.354 368.518 226.416 368.517H459.766C460.826 368.519 461.881 368.379 462.903 368.101C465.235 367.454 467.349 366.188 469.02 364.437C472.207 361.031 473.948 356.521 473.879 351.857V40.4982C472.589 39.5469 471.292 38.6035 469.979 37.6836C469.72 37.5027 469.46 37.3219 469.201 37.1411V351.857C469.202 352.877 469.081 353.893 468.839 354.884C467.73 359.562 464.075 362.99 459.766 362.99H226.416C221.211 362.99 216.981 357.998 216.981 351.857V31.9127C216.462 32.2429 215.943 32.5731 215.424 32.9191Z" fill="#E6E6E6"/>
<path d="M471.54 62.4291H214.64V67.1142H471.54V62.4291Z" fill="#E6E6E6"/>
<path d="M392.859 2.66531C391.302 2.28006 389.745 1.9184 388.173 1.58032V128.799H392.859V2.66531Z" fill="#E6E6E6"/>
<path d="M298.009 0C296.444 0.290902 294.88 0.589668 293.323 0.912019V128.799H298.009V0Z" fill="#E6E6E6"/>
<path d="M164.273 360.317C164.272 363.005 164.787 365.669 165.79 368.163C166.176 369.131 166.636 370.066 167.166 370.962C167.851 372.131 168.646 373.231 169.541 374.249C171.516 376.5 173.949 378.303 176.677 379.538C179.405 380.773 182.365 381.412 185.359 381.411H493.015C498.608 381.411 503.971 379.19 507.926 375.235C511.88 371.281 514.102 365.917 514.102 360.325C514.102 354.732 511.88 349.369 507.926 345.414C503.971 341.46 498.608 339.238 493.015 339.238H185.359C179.77 339.244 174.411 341.466 170.458 345.418C166.505 349.369 164.281 354.728 164.273 360.317Z" fill="#E6E6E6"/>
<path d="M214.64 133.486L469.978 133.486V117.869L214.64 117.869V133.486Z" fill="#E6E6E6"/>
<path d="M353.241 121.774H331.377C331.377 119.496 332.282 117.311 333.893 115.7C335.504 114.089 337.688 113.184 339.966 113.184H344.652C345.78 113.184 346.896 113.406 347.939 113.838C348.981 114.27 349.928 114.902 350.725 115.7C351.523 116.498 352.155 117.444 352.587 118.487C353.019 119.529 353.241 120.646 353.241 121.774H353.241Z" fill="#E6E6E6"/>
<path d="M0 372.362C6.8301 380.455 14.2176 388.06 22.1085 395.123H656.258C664.149 388.06 671.537 380.455 678.367 372.362H0Z" fill="#3F3D56"/>
<path d="M311.886 296.248V376.883H368.376V296.248C368.377 295.668 368.192 295.103 367.848 294.636C367.504 294.169 367.019 293.825 366.465 293.653C366.204 293.567 365.93 293.525 365.655 293.527H314.614C314.256 293.527 313.902 293.597 313.571 293.733C313.24 293.869 312.939 294.07 312.686 294.322C312.433 294.575 312.232 294.875 312.094 295.205C311.957 295.536 311.886 295.89 311.886 296.248ZM333.931 323.954C333.946 322.365 334.588 320.845 335.718 319.727C336.847 318.608 338.372 317.98 339.962 317.98C341.551 317.98 343.077 318.608 344.206 319.727C345.335 320.845 345.977 322.365 345.992 323.954V333.31C345.984 334.904 345.345 336.43 344.215 337.554C343.085 338.679 341.556 339.31 339.962 339.31C338.368 339.31 336.839 338.679 335.709 337.554C334.579 336.43 333.94 334.904 333.931 333.31V323.954Z" fill="#2F2E41"/>
<path d="M311.713 374.304V382.08C311.714 382.482 311.874 382.868 312.158 383.154C312.442 383.44 312.828 383.602 313.23 383.605H367.031C367.435 383.603 367.821 383.441 368.105 383.156C368.389 382.87 368.549 382.483 368.549 382.08V374.304H311.713Z" fill="#3F3D56"/>
<path d="M223.019 174.761V321.989C223.021 323.865 223.767 325.664 225.093 326.991C226.42 328.317 228.219 329.063 230.095 329.065H448.271C450.148 329.063 451.947 328.317 453.273 326.991C454.6 325.664 455.346 323.865 455.347 321.989V174.761C455.343 172.887 454.596 171.09 453.27 169.765C451.943 168.441 450.146 167.695 448.271 167.693H230.095C228.221 167.695 226.423 168.441 225.097 169.765C223.771 171.09 223.024 172.887 223.019 174.761Z" fill="#3F3D56"/>
<path d="M228.138 176.593V320.173C228.139 321.175 228.538 322.136 229.247 322.845C229.956 323.553 230.917 323.952 231.919 323.954H446.455C447.458 323.952 448.419 323.553 449.128 322.845C449.836 322.136 450.235 321.175 450.237 320.173V176.593C450.237 175.589 449.839 174.627 449.13 173.916C448.421 173.206 447.459 172.806 446.455 172.803H231.919C230.916 172.806 229.954 173.206 229.245 173.916C228.536 174.627 228.138 175.589 228.138 176.593Z" fill="#6C63FF"/>
<path d="M271.883 385.437C272.101 385.71 272.379 385.931 272.695 386.082C273.011 386.234 273.357 386.311 273.707 386.309H401.342C401.691 386.309 402.036 386.231 402.351 386.08C402.666 385.93 402.943 385.711 403.163 385.44C403.383 385.169 403.54 384.852 403.622 384.513C403.704 384.174 403.709 383.821 403.638 383.479L401.657 374.068C401.574 373.684 401.398 373.327 401.142 373.029C400.887 372.731 400.561 372.502 400.194 372.362C399.929 372.258 399.646 372.204 399.361 372.205H275.68C275.395 372.204 275.113 372.258 274.847 372.362C274.48 372.502 274.154 372.731 273.899 373.029C273.644 373.327 273.467 373.684 273.385 374.068L271.403 383.479C271.333 383.82 271.339 384.173 271.422 384.512C271.505 384.851 271.663 385.166 271.883 385.437Z" fill="#2F2E41"/>
<path d="M394.907 376.258H398.07C398.282 376.258 398.454 376.086 398.454 375.875V374.283C398.454 374.072 398.282 373.9 398.07 373.9H394.907C394.695 373.9 394.523 374.072 394.523 374.283V375.875C394.523 376.086 394.695 376.258 394.907 376.258Z" fill="#3F3D56"/>
<path d="M387.045 376.258H390.208C390.42 376.258 390.592 376.086 390.592 375.875V374.283C390.592 374.072 390.42 373.9 390.208 373.9H387.045C386.833 373.9 386.661 374.072 386.661 374.283V375.875C386.661 376.086 386.833 376.258 387.045 376.258Z" fill="#3F3D56"/>
<path d="M379.182 376.258H382.346C382.558 376.258 382.73 376.086 382.73 375.875V374.283C382.73 374.072 382.558 373.9 382.346 373.9H379.182C378.971 373.9 378.799 374.072 378.799 374.283V375.875C378.799 376.086 378.971 376.258 379.182 376.258Z" fill="#3F3D56"/>
<path d="M371.32 376.258H374.484C374.696 376.258 374.868 376.086 374.868 375.875V374.283C374.868 374.072 374.696 373.9 374.484 373.9H371.32C371.108 373.9 370.936 374.072 370.936 374.283V375.875C370.936 376.086 371.108 376.258 371.32 376.258Z" fill="#3F3D56"/>
<path d="M363.458 376.258H366.622C366.834 376.258 367.005 376.086 367.005 375.875V374.283C367.005 374.072 366.834 373.9 366.622 373.9H363.458C363.246 373.9 363.074 374.072 363.074 374.283V375.875C363.074 376.086 363.246 376.258 363.458 376.258Z" fill="#3F3D56"/>
<path d="M355.596 376.258H358.759C358.971 376.258 359.143 376.086 359.143 375.875V374.283C359.143 374.072 358.971 373.9 358.759 373.9H355.596C355.384 373.9 355.212 374.072 355.212 374.283V375.875C355.212 376.086 355.384 376.258 355.596 376.258Z" fill="#3F3D56"/>
<path d="M347.734 376.258H350.897C351.109 376.258 351.281 376.086 351.281 375.875V374.283C351.281 374.072 351.109 373.9 350.897 373.9H347.734C347.522 373.9 347.35 374.072 347.35 374.283V375.875C347.35 376.086 347.522 376.258 347.734 376.258Z" fill="#3F3D56"/>
<path d="M339.871 376.258H343.035C343.247 376.258 343.419 376.086 343.419 375.875V374.283C343.419 374.072 343.247 373.9 343.035 373.9H339.871C339.659 373.9 339.488 374.072 339.488 374.283V375.875C339.488 376.086 339.659 376.258 339.871 376.258Z" fill="#3F3D56"/>
<path d="M332.009 376.258H335.173C335.385 376.258 335.557 376.086 335.557 375.875V374.283C335.557 374.072 335.385 373.9 335.173 373.9H332.009C331.797 373.9 331.625 374.072 331.625 374.283V375.875C331.625 376.086 331.797 376.258 332.009 376.258Z" fill="#3F3D56"/>
<path d="M324.147 376.258H327.31C327.522 376.258 327.694 376.086 327.694 375.875V374.283C327.694 374.072 327.522 373.9 327.31 373.9H324.147C323.935 373.9 323.763 374.072 323.763 374.283V375.875C323.763 376.086 323.935 376.258 324.147 376.258Z" fill="#3F3D56"/>
<path d="M316.285 376.258H319.448C319.66 376.258 319.832 376.086 319.832 375.875V374.283C319.832 374.072 319.66 373.9 319.448 373.9H316.285C316.073 373.9 315.901 374.072 315.901 374.283V375.875C315.901 376.086 316.073 376.258 316.285 376.258Z" fill="#3F3D56"/>
<path d="M308.423 376.258H311.586C311.798 376.258 311.97 376.086 311.97 375.875V374.283C311.97 374.072 311.798 373.9 311.586 373.9H308.423C308.211 373.9 308.039 374.072 308.039 374.283V375.875C308.039 376.086 308.211 376.258 308.423 376.258Z" fill="#3F3D56"/>
<path d="M300.56 376.258H303.724C303.936 376.258 304.108 376.086 304.108 375.875V374.283C304.108 374.072 303.936 373.9 303.724 373.9H300.56C300.348 373.9 300.177 374.072 300.177 374.283V375.875C300.177 376.086 300.348 376.258 300.56 376.258Z" fill="#3F3D56"/>
<path d="M292.698 376.258H295.862C296.074 376.258 296.246 376.086 296.246 375.875V374.283C296.246 374.072 296.074 373.9 295.862 373.9H292.698C292.486 373.9 292.314 374.072 292.314 374.283V375.875C292.314 376.086 292.486 376.258 292.698 376.258Z" fill="#3F3D56"/>
<path d="M284.836 376.258H287.999C288.211 376.258 288.383 376.086 288.383 375.875V374.283C288.383 374.072 288.211 373.9 287.999 373.9H284.836C284.624 373.9 284.452 374.072 284.452 374.283V375.875C284.452 376.086 284.624 376.258 284.836 376.258Z" fill="#3F3D56"/>
<path d="M276.974 376.258H280.137C280.349 376.258 280.521 376.086 280.521 375.875V374.283C280.521 374.072 280.349 373.9 280.137 373.9H276.974C276.762 373.9 276.59 374.072 276.59 374.283V375.875C276.59 376.086 276.762 376.258 276.974 376.258Z" fill="#3F3D56"/>
<path d="M395 380.189H398.163C398.375 380.189 398.547 380.018 398.547 379.806V378.215C398.547 378.003 398.375 377.831 398.163 377.831H395C394.788 377.831 394.616 378.003 394.616 378.215V379.806C394.616 380.018 394.788 380.189 395 380.189Z" fill="#3F3D56"/>
<path d="M387.138 380.189H390.301C390.513 380.189 390.685 380.018 390.685 379.806V378.215C390.685 378.003 390.513 377.831 390.301 377.831H387.138C386.926 377.831 386.754 378.003 386.754 378.215V379.806C386.754 380.018 386.926 380.189 387.138 380.189Z" fill="#3F3D56"/>
<path d="M379.275 380.189H382.439C382.651 380.189 382.823 380.018 382.823 379.806V378.215C382.823 378.003 382.651 377.831 382.439 377.831H379.275C379.063 377.831 378.892 378.003 378.892 378.215V379.806C378.892 380.018 379.063 380.189 379.275 380.189Z" fill="#3F3D56"/>
<path d="M371.413 380.189H374.577C374.789 380.189 374.961 380.018 374.961 379.806V378.215C374.961 378.003 374.789 377.831 374.577 377.831H371.413C371.201 377.831 371.029 378.003 371.029 378.215V379.806C371.029 380.018 371.201 380.189 371.413 380.189Z" fill="#3F3D56"/>
<path d="M363.551 380.189H366.714C366.926 380.189 367.098 380.018 367.098 379.806V378.215C367.098 378.003 366.926 377.831 366.714 377.831H363.551C363.339 377.831 363.167 378.003 363.167 378.215V379.806C363.167 380.018 363.339 380.189 363.551 380.189Z" fill="#3F3D56"/>
<path d="M355.689 380.189H358.852C359.064 380.189 359.236 380.018 359.236 379.806V378.215C359.236 378.003 359.064 377.831 358.852 377.831H355.689C355.477 377.831 355.305 378.003 355.305 378.215V379.806C355.305 380.018 355.477 380.189 355.689 380.189Z" fill="#3F3D56"/>
<path d="M347.827 380.189H350.99C351.202 380.189 351.374 380.018 351.374 379.806V378.215C351.374 378.003 351.202 377.831 350.99 377.831H347.827C347.615 377.831 347.443 378.003 347.443 378.215V379.806C347.443 380.018 347.615 380.189 347.827 380.189Z" fill="#3F3D56"/>
<path d="M339.964 380.189H343.128C343.34 380.189 343.512 380.018 343.512 379.806V378.215C343.512 378.003 343.34 377.831 343.128 377.831H339.964C339.752 377.831 339.581 378.003 339.581 378.215V379.806C339.581 380.018 339.752 380.189 339.964 380.189Z" fill="#3F3D56"/>
<path d="M332.102 380.189H335.266C335.478 380.189 335.65 380.018 335.65 379.806V378.215C335.65 378.003 335.478 377.831 335.266 377.831H332.102C331.89 377.831 331.718 378.003 331.718 378.215V379.806C331.718 380.018 331.89 380.189 332.102 380.189Z" fill="#3F3D56"/>
<path d="M324.24 380.189H327.403C327.615 380.189 327.787 380.018 327.787 379.806V378.215C327.787 378.003 327.615 377.831 327.403 377.831H324.24C324.028 377.831 323.856 378.003 323.856 378.215V379.806C323.856 380.018 324.028 380.189 324.24 380.189Z" fill="#3F3D56"/>
<path d="M316.378 380.189H319.541C319.753 380.189 319.925 380.018 319.925 379.806V378.215C319.925 378.003 319.753 377.831 319.541 377.831H316.378C316.166 377.831 315.994 378.003 315.994 378.215V379.806C315.994 380.018 316.166 380.189 316.378 380.189Z" fill="#3F3D56"/>
<path d="M308.516 380.189H311.679C311.891 380.189 312.063 380.018 312.063 379.806V378.215C312.063 378.003 311.891 377.831 311.679 377.831H308.516C308.304 377.831 308.132 378.003 308.132 378.215V379.806C308.132 380.018 308.304 380.189 308.516 380.189Z" fill="#3F3D56"/>
<path d="M300.653 380.189H303.817C304.029 380.189 304.201 380.018 304.201 379.806V378.215C304.201 378.003 304.029 377.831 303.817 377.831H300.653C300.441 377.831 300.27 378.003 300.27 378.215V379.806C300.27 380.018 300.441 380.189 300.653 380.189Z" fill="#3F3D56"/>
<path d="M292.791 380.189H295.955C296.167 380.189 296.338 380.018 296.338 379.806V378.215C296.338 378.003 296.167 377.831 295.955 377.831H292.791C292.579 377.831 292.407 378.003 292.407 378.215V379.806C292.407 380.018 292.579 380.189 292.791 380.189Z" fill="#3F3D56"/>
<path d="M284.929 380.189H288.092C288.304 380.189 288.476 380.018 288.476 379.806V378.215C288.476 378.003 288.304 377.831 288.092 377.831H284.929C284.717 377.831 284.545 378.003 284.545 378.215V379.806C284.545 380.018 284.717 380.189 284.929 380.189Z" fill="#3F3D56"/>
<path d="M277.067 380.189H280.23C280.442 380.189 280.614 380.018 280.614 379.806V378.215C280.614 378.003 280.442 377.831 280.23 377.831H277.067C276.855 377.831 276.683 378.003 276.683 378.215V379.806C276.683 380.018 276.855 380.189 277.067 380.189Z" fill="#3F3D56"/>
<path d="M329.744 384.907H360.425C360.637 384.907 360.809 384.735 360.809 384.523V382.932C360.809 382.72 360.637 382.548 360.425 382.548H329.744C329.532 382.548 329.36 382.72 329.36 382.932V384.523C329.36 384.735 329.532 384.907 329.744 384.907Z" fill="#3F3D56"/>
<path d="M242.7 192.582H443.44C443.649 192.578 443.848 192.491 443.994 192.342C444.14 192.193 444.221 191.993 444.221 191.784C444.221 191.575 444.14 191.375 443.994 191.226C443.848 191.076 443.649 190.99 443.44 190.986H242.7C242.491 190.99 242.293 191.076 242.147 191.226C242.001 191.375 241.919 191.575 241.919 191.784C241.919 191.993 242.001 192.193 242.147 192.342C242.293 192.491 242.491 192.578 242.7 192.582Z" fill="#3F3D56"/>
<path d="M429.776 186.91C432.36 186.91 434.454 184.768 434.454 182.127C434.454 179.486 432.36 177.344 429.776 177.344C427.192 177.344 425.097 179.486 425.097 182.127C425.097 184.768 427.192 186.91 429.776 186.91Z" fill="#3F3D56"/>
<path d="M413.614 186.91C416.198 186.91 418.293 184.768 418.293 182.127C418.293 179.486 416.198 177.344 413.614 177.344C411.03 177.344 408.936 179.486 408.936 182.127C408.936 184.768 411.03 186.91 413.614 186.91Z" fill="#3F3D56"/>
<path d="M397.453 186.91C400.036 186.91 402.131 184.768 402.131 182.127C402.131 179.486 400.036 177.344 397.453 177.344C394.869 177.344 392.774 179.486 392.774 182.127C392.774 184.768 394.869 186.91 397.453 186.91Z" fill="#3F3D56"/>
<path d="M251.575 179.4C251.574 179.513 251.596 179.625 251.639 179.73C251.682 179.834 251.745 179.929 251.824 180.01C251.904 180.09 251.998 180.154 252.103 180.198C252.207 180.241 252.319 180.264 252.432 180.265H263.911C264.138 180.259 264.353 180.166 264.512 180.003C264.671 179.841 264.759 179.623 264.759 179.396C264.759 179.169 264.671 178.951 264.512 178.789C264.353 178.626 264.138 178.532 263.911 178.527H252.432C252.203 178.53 251.984 178.623 251.823 178.787C251.663 178.95 251.573 179.171 251.575 179.4Z" fill="#3F3D56"/>
<path d="M251.575 182.663C251.574 182.776 251.596 182.888 251.639 182.992C251.682 183.097 251.745 183.192 251.824 183.273C251.904 183.353 251.998 183.417 252.103 183.46C252.207 183.504 252.319 183.527 252.432 183.527H263.911C264.138 183.522 264.354 183.429 264.513 183.266C264.671 183.104 264.76 182.886 264.76 182.659C264.76 182.432 264.671 182.213 264.513 182.051C264.354 181.889 264.138 181.795 263.911 181.79H252.432C252.203 181.793 251.984 181.886 251.823 182.05C251.663 182.213 251.573 182.433 251.575 182.663Z" fill="#3F3D56"/>
<path d="M251.575 185.918C251.573 186.147 251.663 186.367 251.823 186.531C251.984 186.694 252.203 186.787 252.432 186.79H263.911C264.138 186.785 264.353 186.691 264.512 186.529C264.671 186.366 264.759 186.148 264.759 185.922C264.759 185.695 264.671 185.477 264.512 185.314C264.353 185.152 264.138 185.058 263.911 185.053H252.432C252.319 185.053 252.207 185.076 252.103 185.12C251.998 185.163 251.904 185.227 251.824 185.308C251.745 185.388 251.682 185.483 251.639 185.588C251.596 185.692 251.574 185.805 251.575 185.918Z" fill="#3F3D56"/>
<path d="M255.122 211.134H250.998C249.747 211.134 248.733 212.148 248.733 213.399C248.733 214.649 249.747 215.663 250.998 215.663H255.122C256.373 215.663 257.387 214.649 257.387 213.399C257.387 212.148 256.373 211.134 255.122 211.134Z" fill="#E6E6E6"/>
<path d="M302.296 211.134H298.171C296.92 211.134 295.907 212.148 295.907 213.399C295.907 214.649 296.92 215.663 298.171 215.663H302.296C303.546 215.663 304.56 214.649 304.56 213.399C304.56 212.148 303.546 211.134 302.296 211.134Z" fill="#E6E6E6"/>
<path d="M315.661 211.134H311.537C310.286 211.134 309.272 212.148 309.272 213.399C309.272 214.649 310.286 215.663 311.537 215.663H315.661C316.912 215.663 317.926 214.649 317.926 213.399C317.926 212.148 316.912 211.134 315.661 211.134Z" fill="#E6E6E6"/>
<path d="M289.464 210.757H263.829C262.578 210.757 261.565 211.77 261.565 213.021C261.565 214.272 262.578 215.285 263.829 215.285H289.464C290.715 215.285 291.729 214.272 291.729 213.021C291.729 211.77 290.715 210.757 289.464 210.757Z" fill="#E6E6E6"/>
<path d="M352.362 210.757H326.727C325.476 210.757 324.462 211.77 324.462 213.021C324.462 214.272 325.476 215.285 326.727 215.285H352.362C353.612 215.285 354.626 214.272 354.626 213.021C354.626 211.77 353.612 210.757 352.362 210.757Z" fill="#E6E6E6"/>
<path d="M267.702 221.355H263.577C262.327 221.355 261.313 222.369 261.313 223.619C261.313 224.87 262.327 225.884 263.577 225.884H267.702C268.952 225.884 269.966 224.87 269.966 223.619C269.966 222.369 268.952 221.355 267.702 221.355Z" fill="#E6E6E6"/>
<path d="M314.875 221.355H310.75C309.5 221.355 308.486 222.369 308.486 223.619C308.486 224.87 309.5 225.884 310.75 225.884H314.875C316.126 225.884 317.139 224.87 317.139 223.619C317.139 222.369 316.126 221.355 314.875 221.355Z" fill="#E6E6E6"/>
<path d="M328.241 221.355H324.116C322.866 221.355 321.852 222.369 321.852 223.619C321.852 224.87 322.866 225.884 324.116 225.884H328.241C329.491 225.884 330.505 224.87 330.505 223.619C330.505 222.369 329.491 221.355 328.241 221.355Z" fill="#E6E6E6"/>
<path d="M302.044 220.978H276.409C275.158 220.978 274.144 221.991 274.144 223.242C274.144 224.492 275.158 225.506 276.409 225.506H302.044C303.294 225.506 304.308 224.492 304.308 223.242C304.308 221.991 303.294 220.978 302.044 220.978Z" fill="#E6E6E6"/>
<path d="M364.941 220.978H339.306C338.056 220.978 337.042 221.991 337.042 223.242C337.042 224.492 338.056 225.506 339.306 225.506H364.941C366.192 225.506 367.206 224.492 367.206 223.242C367.206 221.991 366.192 220.978 364.941 220.978Z" fill="#E6E6E6"/>
<path d="M280.281 231.576H276.157C274.906 231.576 273.893 232.59 273.893 233.84C273.893 235.091 274.906 236.105 276.157 236.105H280.281C281.532 236.105 282.546 235.091 282.546 233.84C282.546 232.59 281.532 231.576 280.281 231.576Z" fill="#E6E6E6"/>
<path d="M327.455 231.576H323.33C322.079 231.576 321.066 232.59 321.066 233.84C321.066 235.091 322.079 236.105 323.33 236.105H327.455C328.705 236.105 329.719 235.091 329.719 233.84C329.719 232.59 328.705 231.576 327.455 231.576Z" fill="#E6E6E6"/>
<path d="M340.82 231.576H336.696C335.445 231.576 334.432 232.59 334.432 233.84C334.432 235.091 335.445 236.105 336.696 236.105H340.82C342.071 236.105 343.085 235.091 343.085 233.84C343.085 232.59 342.071 231.576 340.82 231.576Z" fill="#E6E6E6"/>
<path d="M314.623 231.198H288.988C287.738 231.198 286.724 232.212 286.724 233.463C286.724 234.713 287.738 235.727 288.988 235.727H314.623C315.874 235.727 316.888 234.713 316.888 233.463C316.888 232.212 315.874 231.198 314.623 231.198Z" fill="#E6E6E6"/>
<path d="M377.521 231.198H351.886C350.635 231.198 349.621 232.212 349.621 233.463C349.621 234.713 350.635 235.727 351.886 235.727H377.521C378.772 235.727 379.785 234.713 379.785 233.463C379.785 232.212 378.772 231.198 377.521 231.198Z" fill="#E6E6E6"/>
<path d="M292.861 241.797H288.736C287.486 241.797 286.472 242.811 286.472 244.061C286.472 245.312 287.486 246.325 288.736 246.325H292.861C294.112 246.325 295.125 245.312 295.125 244.061C295.125 242.811 294.112 241.797 292.861 241.797Z" fill="#E6E6E6"/>
<path d="M340.034 241.797H335.91C334.659 241.797 333.645 242.811 333.645 244.061C333.645 245.312 334.659 246.325 335.91 246.325H340.034C341.285 246.325 342.298 245.312 342.298 244.061C342.298 242.811 341.285 241.797 340.034 241.797Z" fill="#E6E6E6"/>
<path d="M353.4 241.797H349.275C348.025 241.797 347.011 242.811 347.011 244.061C347.011 245.312 348.025 246.325 349.275 246.325H353.4C354.65 246.325 355.664 245.312 355.664 244.061C355.664 242.811 354.65 241.797 353.4 241.797Z" fill="#E6E6E6"/>
<path d="M327.203 241.419H301.568C300.317 241.419 299.303 242.433 299.303 243.684C299.303 244.934 300.317 245.948 301.568 245.948H327.203C328.453 245.948 329.467 244.934 329.467 243.684C329.467 242.433 328.453 241.419 327.203 241.419Z" fill="#E6E6E6"/>
<path d="M302.296 282.439H298.171C296.92 282.439 295.907 283.453 295.907 284.704C295.907 285.954 296.92 286.968 298.171 286.968H302.296C303.546 286.968 304.56 285.954 304.56 284.704C304.56 283.453 303.546 282.439 302.296 282.439Z" fill="#E6E6E6"/>
<path d="M315.661 282.439H311.537C310.286 282.439 309.272 283.453 309.272 284.704C309.272 285.954 310.286 286.968 311.537 286.968H315.661C316.912 286.968 317.926 285.954 317.926 284.704C317.926 283.453 316.912 282.439 315.661 282.439Z" fill="#E6E6E6"/>
<path d="M352.362 282.817H326.727C325.476 282.817 324.462 283.831 324.462 285.081C324.462 286.332 325.476 287.345 326.727 287.345H352.362C353.612 287.345 354.626 286.332 354.626 285.081C354.626 283.831 353.612 282.817 352.362 282.817Z" fill="#E6E6E6"/>
<path d="M255.122 282.439H250.998C249.747 282.439 248.733 283.453 248.733 284.704C248.733 285.954 249.747 286.968 250.998 286.968H255.122C256.373 286.968 257.387 285.954 257.387 284.704C257.387 283.453 256.373 282.439 255.122 282.439Z" fill="#E6E6E6"/>
<path d="M289.464 282.817H263.829C262.578 282.817 261.565 283.831 261.565 285.081C261.565 286.332 262.578 287.345 263.829 287.345H289.464C290.715 287.345 291.729 286.332 291.729 285.081C291.729 283.831 290.715 282.817 289.464 282.817Z" fill="#E6E6E6"/>
<path d="M267.702 272.219H263.577C262.327 272.219 261.313 273.232 261.313 274.483C261.313 275.733 262.327 276.747 263.577 276.747H267.702C268.952 276.747 269.966 275.733 269.966 274.483C269.966 273.232 268.952 272.219 267.702 272.219Z" fill="#E6E6E6"/>
<path d="M314.875 272.219H310.75C309.5 272.219 308.486 273.232 308.486 274.483C308.486 275.733 309.5 276.747 310.75 276.747H314.875C316.126 276.747 317.139 275.733 317.139 274.483C317.139 273.232 316.126 272.219 314.875 272.219Z" fill="#E6E6E6"/>
<path d="M328.241 272.219H324.116C322.866 272.219 321.852 273.232 321.852 274.483C321.852 275.733 322.866 276.747 324.116 276.747H328.241C329.491 276.747 330.505 275.733 330.505 274.483C330.505 273.232 329.491 272.219 328.241 272.219Z" fill="#E6E6E6"/>
<path d="M302.044 272.596H276.409C275.158 272.596 274.144 273.61 274.144 274.86C274.144 276.111 275.158 277.125 276.409 277.125H302.044C303.294 277.125 304.308 276.111 304.308 274.86C304.308 273.61 303.294 272.596 302.044 272.596Z" fill="#E6E6E6"/>
<path d="M280.281 261.998H276.157C274.906 261.998 273.893 263.011 273.893 264.262C273.893 265.512 274.906 266.526 276.157 266.526H280.281C281.532 266.526 282.546 265.512 282.546 264.262C282.546 263.011 281.532 261.998 280.281 261.998Z" fill="#E6E6E6"/>
<path d="M327.455 261.998H323.33C322.079 261.998 321.066 263.011 321.066 264.262C321.066 265.512 322.079 266.526 323.33 266.526H327.455C328.705 266.526 329.719 265.512 329.719 264.262C329.719 263.011 328.705 261.998 327.455 261.998Z" fill="#E6E6E6"/>
<path d="M340.82 261.998H336.696C335.445 261.998 334.432 263.011 334.432 264.262C334.432 265.512 335.445 266.526 336.696 266.526H340.82C342.071 266.526 343.085 265.512 343.085 264.262C343.085 263.011 342.071 261.998 340.82 261.998Z" fill="#E6E6E6"/>
<path d="M314.623 262.375H288.988C287.738 262.375 286.724 263.389 286.724 264.639C286.724 265.89 287.738 266.904 288.988 266.904H314.623C315.874 266.904 316.888 265.89 316.888 264.639C316.888 263.389 315.874 262.375 314.623 262.375Z" fill="#E6E6E6"/>
<path d="M292.861 251.777H288.736C287.486 251.777 286.472 252.79 286.472 254.041C286.472 255.292 287.486 256.305 288.736 256.305H292.861C294.112 256.305 295.125 255.292 295.125 254.041C295.125 252.79 294.112 251.777 292.861 251.777Z" fill="#E6E6E6"/>
<path d="M340.034 251.777H335.91C334.659 251.777 333.645 252.79 333.645 254.041C333.645 255.292 334.659 256.305 335.91 256.305H340.034C341.285 256.305 342.298 255.292 342.298 254.041C342.298 252.79 341.285 251.777 340.034 251.777Z" fill="#E6E6E6"/>
<path d="M353.4 251.777H349.275C348.025 251.777 347.011 252.79 347.011 254.041C347.011 255.292 348.025 256.305 349.275 256.305H353.4C354.65 256.305 355.664 255.292 355.664 254.041C355.664 252.79 354.65 251.777 353.4 251.777Z" fill="#E6E6E6"/>
<path d="M327.203 252.154H301.568C300.317 252.154 299.303 253.168 299.303 254.419C299.303 255.669 300.317 256.683 301.568 256.683H327.203C328.453 256.683 329.467 255.669 329.467 254.419C329.467 253.168 328.453 252.154 327.203 252.154Z" fill="#E6E6E6"/>
<path d="M275.108 429.239C274.935 429.325 274.762 429.412 274.589 429.49C273.496 430.033 272.395 430.568 271.287 431.094C267.969 432.675 264.609 434.176 261.208 435.599C252.257 439.343 243.073 442.502 233.713 445.058C232.141 435.253 230.616 412.131 229.153 395.125C228.878 391.925 228.603 388.945 228.328 386.311C228.067 382.854 227.57 379.418 226.842 376.027C226.771 375.762 226.668 375.506 226.535 375.265C226.685 376.625 226.842 380.682 226.991 386.311C227.07 388.945 227.141 391.925 227.219 395.125C227.589 411.494 227.974 433.768 228.359 446.449C227.266 446.717 226.166 446.984 225.065 447.236C224.373 447.401 223.673 447.558 222.974 447.707C222.125 447.896 221.275 448.085 220.426 448.258C219.538 448.446 218.649 448.627 217.761 448.8C203.243 451.652 188.481 453.084 173.686 453.077C172.703 453.077 171.728 453.069 170.745 453.061C170.446 453.061 170.148 453.053 169.841 453.046C168.976 453.03 168.08 453.014 167.168 452.991C149.683 452.507 132.313 450.003 115.403 445.529L116.087 395.125L116.205 386.311L116.252 382.97C115.863 384.045 115.63 385.17 115.56 386.311C115.285 388.458 115.002 391.5 114.719 395.125C113.642 409.088 112.533 431.613 111.385 444.429C97.7916 440.56 87.8538 437.03 75.4315 430.819C74.9519 430.583 74.4645 430.34 73.9849 430.096C74.0713 429.49 74.1657 428.885 74.2522 428.264C75.6595 418.483 74.0006 405.754 75.5573 395.125C76.7445 386.924 77.971 379.047 79.2054 372.364C80.6992 364.321 82.2165 357.999 83.7183 354.925C85.448 351.379 87.1777 347.889 88.8523 344.547C89.5757 343.108 90.2859 341.696 90.983 340.309C91.3603 339.563 91.7377 338.823 92.1073 338.1C93.7898 334.806 95.3779 331.763 96.8324 329.067C97.8545 327.172 98.798 325.458 99.6628 323.956C100.677 322.187 101.573 320.725 102.312 319.616C107.771 311.342 115.893 305.181 125.333 302.154L125.569 302.091L125.797 302.186L126.056 302.304L141.042 296.824L147.732 280.714L182.098 278.599L187.649 282.821L190.487 284.983L193.514 287.287L199.08 291.524L200.661 292.012L203.011 292.735L219.09 297.673L219.255 297.602L219.491 297.665C228.081 300.414 235.6 305.774 241.002 312.996C241.536 313.688 242.032 314.403 242.511 315.127C243.816 317.061 245.577 320.119 247.653 323.956C248.51 325.536 249.414 327.25 250.366 329.067C250.939 330.159 255.893 345.616 260.712 361.404C265.217 376.185 269.604 391.257 270.178 395.125C270.281 395.84 270.391 396.564 270.493 397.279C271.145 401.753 271.79 406.258 272.411 410.653C273.331 417.17 274.227 423.46 275.084 429.082C275.092 429.137 275.1 429.184 275.108 429.239Z" fill="#3F3D56"/>
<path opacity="0.2" d="M238.689 372.327L232.008 346.546L226.109 368.792L238.689 372.327Z" fill="black"/>
<path d="M12.4453 372.028C12.7917 373.037 13.4488 373.91 14.3222 374.522C15.1956 375.133 16.2404 375.453 17.3066 375.433L38.135 374.897C39.209 374.877 40.2474 374.509 41.095 373.849C41.9426 373.189 42.5538 372.272 42.8373 371.236L45.7847 339.719C46.8305 340.192 47.9689 340.426 49.1167 340.403C51.1306 340.353 53.042 339.504 54.4303 338.044C55.8186 336.585 56.5702 334.633 56.5196 332.619C56.4691 330.605 55.6205 328.694 54.1607 327.305C52.7009 325.917 50.7494 325.166 48.7355 325.216C48.2767 325.215 47.8191 325.262 47.3704 325.358C46.8825 324.83 46.2895 324.41 45.6295 324.126C44.9695 323.841 44.2571 323.698 43.5384 323.705L11.4994 324.532C11.2337 324.542 10.9693 324.575 10.7092 324.63C10.0065 324.761 9.34014 325.041 8.7548 325.451C8.16946 325.861 7.67876 326.392 7.31574 327.008C6.95272 327.623 6.72581 328.31 6.65026 329.02C6.57471 329.731 6.65229 330.45 6.87776 331.128L12.4453 372.028ZM46.3892 337.579L48.4865 330.068C48.7251 329.201 48.7306 328.285 48.5025 327.415C48.6043 327.415 48.6941 327.366 48.7958 327.366C50.2339 327.336 51.6251 327.878 52.6644 328.873C53.7037 329.867 54.3062 331.233 54.3399 332.671C54.3736 334.109 53.8356 335.502 52.844 336.544C51.8525 337.586 50.4882 338.192 49.0503 338.23C48.1205 338.259 47.2005 338.034 46.3892 337.579Z" fill="#2F2E41"/>
<path d="M10.7092 324.63C11.3917 328.533 19.066 331.277 28.2937 330.8C36.7791 330.409 43.7173 327.429 44.9884 323.898C44.518 323.759 44.0288 323.694 43.5384 323.705L11.4995 324.532C11.2337 324.542 10.9693 324.575 10.7092 324.63Z" fill="#3F3D56"/>
<path d="M29.9848 354.709C30.027 354.699 30.0671 354.681 30.1035 354.657L34.6267 351.696C34.6814 351.661 34.7263 351.612 34.7574 351.555C34.7886 351.497 34.8049 351.433 34.8049 351.368C34.8049 351.303 34.7887 351.238 34.7576 351.181C34.7265 351.123 34.6816 351.075 34.627 351.039L29.9255 347.96C29.8824 347.931 29.834 347.911 29.7832 347.902C29.7324 347.892 29.6802 347.892 29.6295 347.902C29.5789 347.913 29.5307 347.933 29.4879 347.962C29.4451 347.991 29.4085 348.029 29.3801 348.072C29.3518 348.115 29.3322 348.164 29.3227 348.214C29.3131 348.265 29.3136 348.318 29.3243 348.368C29.3349 348.419 29.3554 348.467 29.3847 348.509C29.414 348.552 29.4514 348.589 29.4948 348.617L33.6939 351.367L29.6732 353.999C29.5953 354.05 29.538 354.127 29.5115 354.216C29.485 354.305 29.491 354.401 29.5284 354.486C29.5658 354.571 29.6321 354.641 29.7157 354.681C29.7993 354.722 29.8946 354.732 29.9848 354.709H29.9848Z" fill="#6C63FF"/>
<path d="M22.8406 355.039C22.9165 355.02 22.985 354.978 23.0372 354.92C23.0894 354.861 23.123 354.789 23.1336 354.711C23.1443 354.634 23.1315 354.555 23.097 354.484C23.0624 354.414 23.0077 354.356 22.9398 354.317L18.7704 351.926L22.8002 348.933C22.8416 348.902 22.8766 348.864 22.9031 348.819C22.9295 348.775 22.947 348.726 22.9546 348.675C22.9621 348.624 22.9595 348.572 22.9469 348.522C22.9343 348.472 22.912 348.425 22.8812 348.383C22.8505 348.342 22.8119 348.307 22.7676 348.281C22.7233 348.254 22.6743 348.237 22.6232 348.229C22.5722 348.222 22.5202 348.224 22.4701 348.237C22.4201 348.249 22.3731 348.272 22.3316 348.302L17.8198 351.654C17.7674 351.693 17.7255 351.744 17.6979 351.803C17.6702 351.862 17.6578 351.927 17.6616 351.992C17.6655 352.058 17.6855 352.121 17.7198 352.176C17.7542 352.232 17.8019 352.278 17.8585 352.31L22.5485 354.999C22.637 355.049 22.7417 355.064 22.8406 355.039Z" fill="#6C63FF"/>
<path d="M29.5349 357.304C29.573 357.294 29.6093 357.279 29.6426 357.258C29.6868 357.232 29.7252 357.196 29.7557 357.155C29.7863 357.113 29.8083 357.066 29.8205 357.016C29.8327 356.965 29.8349 356.913 29.827 356.862C29.8191 356.811 29.8012 356.762 29.7743 356.718L23.3623 346.176C23.3078 346.088 23.2204 346.024 23.1193 346C23.0182 345.976 22.9116 345.992 22.8227 346.046C22.7339 346.101 22.6701 346.188 22.6454 346.289C22.6206 346.39 22.6369 346.496 22.6906 346.585L29.1026 357.127C29.1463 357.199 29.2119 357.255 29.2897 357.287C29.3675 357.318 29.4535 357.324 29.5349 357.304Z" fill="#6C63FF"/>
<path d="M617.3 430.094C616.821 430.338 616.333 430.581 615.854 430.817C603.431 437.028 593.494 440.559 579.9 444.427C578.752 431.611 577.643 409.086 576.566 395.123C576.283 391.498 576 388.456 575.725 386.309C575.656 385.168 575.423 384.043 575.033 382.968L575.08 386.309L575.198 395.123L575.882 445.528C558.973 450.002 541.602 452.505 524.117 452.989C523.205 453.012 522.309 453.028 521.444 453.044C521.138 453.052 520.839 453.06 520.54 453.06C519.557 453.067 518.582 453.075 517.6 453.075C499.174 453.089 480.815 450.863 462.926 446.447C463.311 433.766 463.696 411.492 464.066 395.123C464.145 391.923 464.215 388.943 464.294 386.309C464.443 380.68 464.601 376.623 464.75 375.263C464.618 375.504 464.515 375.76 464.443 376.026C463.715 379.416 463.219 382.852 462.957 386.309C462.682 388.943 462.407 391.923 462.132 395.123C460.669 412.129 459.144 435.252 457.572 445.056C448.212 442.501 439.028 439.341 430.078 435.598C425.36 433.632 420.727 431.512 416.177 429.237C417.042 423.576 417.946 417.231 418.874 410.651C419.597 405.548 420.344 400.304 421.107 395.123C422.286 387.119 462.352 300.69 471.794 297.663L472.03 297.6L472.195 297.671L488.274 292.733L490.624 292.01L492.205 291.523L497.771 287.285L500.798 284.981L503.636 282.819L509.187 278.597L543.553 280.712L550.244 296.822L565.229 302.302L565.488 302.184L565.716 302.089L565.952 302.152C575.392 305.179 583.514 311.34 588.973 319.614C589.712 320.723 590.608 322.185 591.622 323.954C592.487 325.456 593.431 327.17 594.453 329.065C595.907 331.761 597.495 334.804 599.178 338.098C599.547 338.822 599.925 339.561 600.302 340.308C601.002 341.691 601.712 343.104 602.433 344.545C604.108 347.887 605.837 351.378 607.567 354.923C609.069 357.998 610.586 364.319 612.08 372.362C613.314 379.045 614.541 386.923 615.728 395.123C617.285 405.753 615.626 418.481 617.033 428.262C617.12 428.883 617.214 429.489 617.3 430.094Z" fill="#3F3D56"/>
<path d="M516.511 272.814C538.585 272.814 556.48 254.92 556.48 232.846C556.48 210.772 538.585 192.877 516.511 192.877C494.437 192.877 476.542 210.772 476.542 232.846C476.542 254.92 494.437 272.814 516.511 272.814Z" fill="#FFB6B6"/>
<path opacity="0.2" d="M452.595 372.327L459.275 346.546L465.175 368.792L452.595 372.327Z" fill="black"/>
<path d="M630.367 355.529C627.977 388.456 630.454 402.954 617.261 430.102C605.257 435.977 592.754 440.771 579.9 444.427C578.563 444.804 577.224 445.171 575.882 445.528C558.973 450.002 541.602 452.505 524.117 452.989C523.205 453.012 522.309 453.028 521.444 453.044C521.138 453.052 520.839 453.06 520.54 453.06C519.557 453.067 518.582 453.075 517.6 453.075C499.174 453.089 480.815 450.863 462.926 446.447C461.133 446.007 459.349 445.543 457.572 445.056C448.212 442.501 439.028 439.341 430.078 435.598C425.36 433.632 420.727 431.512 416.177 429.237C415.147 428.718 414.117 428.199 413.103 427.665C407.89 418.497 404.926 407.349 404.864 393.952C408.472 370.868 622.395 335.622 630.367 355.529Z" fill="#2F2E41"/>
<path opacity="0.2" d="M630.361 361.168C630.483 359.129 630.62 357.024 630.779 354.831C622.807 334.924 408.884 370.17 405.275 393.254C405.285 395.37 405.376 397.424 405.528 399.429C414.267 376.646 617.496 343.146 630.361 361.168Z" fill="black"/>
<path d="M399.543 357.082L417.103 348.302L402.47 308.794L398.614 288.87C398.113 286.281 396.941 283.87 395.216 281.876C393.491 279.882 391.273 278.375 388.783 277.507C386.293 276.639 383.62 276.44 381.029 276.929C378.438 277.418 376.021 278.578 374.019 280.294C371.052 282.837 369.19 286.433 368.824 290.323C368.459 294.213 369.619 298.093 372.059 301.143L386.374 319.037L399.543 357.082Z" fill="#FFB6B6"/>
<path d="M417.103 340.986L393.69 352.692L411.458 408.364C412.734 412.361 415.021 415.962 418.098 418.815C421.174 421.669 424.936 423.679 429.019 424.651C434.052 425.85 439.337 425.414 444.106 423.407C448.875 421.4 452.882 417.926 455.544 413.489L502.658 332.733C505.997 327.169 507.027 320.519 505.529 314.205C504.032 307.891 500.124 302.412 494.642 298.94C491.693 297.073 488.384 295.847 484.931 295.343C481.477 294.839 477.956 295.068 474.597 296.014C471.237 296.961 468.115 298.605 465.433 300.838C462.751 303.071 460.569 305.844 459.029 308.976L430.272 370.251L417.103 340.986Z" fill="#3F3D56"/>
<path d="M164.719 270.056C189.007 270.056 208.696 250.367 208.696 226.079C208.696 201.791 189.007 182.102 164.719 182.102C140.431 182.102 120.742 201.791 120.742 226.079C120.742 250.367 140.431 270.056 164.719 270.056Z" fill="#A0616A"/>
<path d="M121.27 195.774C124.846 190.954 129.985 187.528 133.916 182.994C136.073 180.506 137.864 177.687 140.289 175.46C144.794 171.322 151.095 169.626 157.209 169.415C163.909 169.243 170.555 170.651 176.611 173.525C182.666 176.398 187.959 180.657 192.063 185.956C195.258 184.083 198.454 182.209 201.65 180.335C202.912 183.658 204.175 186.981 205.437 190.304C206.473 189.404 207.795 188.899 209.168 188.88C210.54 188.861 211.875 189.328 212.936 190.199C213.997 191.07 214.716 192.289 214.964 193.639C215.212 194.989 214.975 196.384 214.293 197.575C215.053 195.225 218.538 194.727 220.459 196.279C222.38 197.832 222.894 200.594 222.581 203.044C222.188 205.732 220.999 208.24 219.169 210.248C217.338 212.255 214.949 213.669 212.309 214.307C208.139 215.236 203.285 214.26 199.948 216.927C197.272 219.066 196.464 222.959 193.733 225.026C190.368 227.574 185.612 226.396 181.429 226.959C174.111 227.944 168.316 235.429 169.196 242.76C168.534 240.447 167.838 238.067 166.335 236.187C164.832 234.308 162.301 233.037 159.996 233.728C156.186 234.87 155.563 240.063 156.486 243.932C158.935 254.192 168.216 270.777 168.216 270.777C156.165 275.53 141.808 271.035 132.51 262.015C123.212 252.995 118.369 240.222 116.26 227.44C114.471 216.601 114.724 204.596 121.27 195.774Z" fill="#2F2E41"/>
<path d="M566.599 254.879C574.966 235.696 570.226 218.045 560.026 208.68V208.673C556.017 199.686 550.686 192.752 544.585 191.124C541.637 189.229 538.775 187.004 535.599 185.872C534.119 185.318 532.543 185.07 530.964 185.141C529.386 185.213 527.839 185.603 526.415 186.289L524.796 185.856C523.42 182.342 521.808 182.271 520.016 184.583C513.113 181.367 506.894 179.928 501.359 179.928C483.307 179.928 472.63 195.212 469.8 213.689L484.887 217.706L490.131 209.349L487.71 218.461L496.036 220.67C508.71 237.173 493.544 275.242 474.321 296.423C478.896 295.157 483.454 294.088 487.993 293.215L504.488 269.031L494.267 291.045C499.574 290.267 506.343 291.013 513.742 292.515C516.234 289.26 517.547 284.92 516.258 281.052C518.366 285.132 519.82 289.517 520.566 294.048C536.18 297.861 557.479 299.819 568.958 301.266C578.232 298.238 578.257 264.046 566.599 254.879Z" fill="#2F2E41"/>
<path d="M572.043 189.629C578.171 203.351 565.805 209.253 554.477 209.087C544.241 208.936 535.542 201.745 535.02 191.521C534.769 186.612 536.478 181.804 539.772 178.155C543.067 174.506 547.675 172.315 552.585 172.064C562.808 171.541 567.868 180.282 572.043 189.629Z" fill="#2F2E41"/>
<path d="M287.743 413.009L277.648 396.171L311.213 370.707L325.168 355.973C326.981 354.058 329.265 352.654 331.791 351.898C334.317 351.143 336.997 351.064 339.563 351.669C342.13 352.274 344.492 353.543 346.415 355.347C348.337 357.151 349.753 359.428 350.52 361.951C351.656 365.689 351.295 369.722 349.514 373.2C347.733 376.677 344.671 379.327 340.973 380.589L319.287 387.993L287.743 413.009Z" fill="#A0616A"/>
<path d="M295.039 412.453L279.322 425.552L275.084 429.082L274.589 429.49C273.496 430.033 272.396 430.568 271.287 431.094C267.969 432.675 264.609 434.176 261.208 435.599C252.257 439.343 243.073 442.502 233.713 445.058C231.937 445.545 230.152 446.009 228.359 446.449C227.266 446.717 226.166 446.984 225.065 447.235C224.373 447.401 223.673 447.558 222.974 447.707C222.125 447.896 221.275 448.085 220.426 448.258C219.538 448.446 218.649 448.627 217.761 448.8C215.37 446.525 213.467 443.788 212.167 440.756C210.867 437.723 210.197 434.457 210.198 431.157C210.198 430.945 210.198 430.725 210.206 430.505L212.729 365.775L213.846 337.086C214.018 330.598 216.72 324.435 221.376 319.913C226.031 315.391 232.271 312.869 238.761 312.886C239.516 312.886 240.263 312.925 241.002 312.996C241.536 313.688 242.032 314.404 242.511 315.127C243.816 317.061 245.578 320.119 247.653 323.956C248.51 325.536 249.414 327.25 250.366 329.067C250.94 330.159 255.893 345.616 260.712 361.404L258.59 377.891L254.753 407.61L270.493 397.279L281.579 389.999L282.892 392.192L286.312 397.9L292.916 408.907L295.039 412.453Z" fill="#3F3D56"/>
<path d="M286.422 393.953C286.414 395.29 286.382 396.603 286.312 397.9C286.148 401.479 285.733 405.041 285.069 408.561C283.984 414.473 282.048 420.195 279.322 425.552C278.96 426.267 278.575 426.975 278.182 427.666C277.168 428.201 276.138 428.72 275.108 429.239C274.935 429.325 274.762 429.412 274.589 429.49C270.21 431.668 265.749 433.705 261.208 435.599C252.257 439.343 243.073 442.502 233.713 445.058C231.937 445.545 230.152 446.009 228.359 446.449C224.861 447.314 221.328 448.098 217.761 448.8C203.243 451.652 188.481 453.085 173.686 453.077C172.703 453.077 171.728 453.069 170.745 453.061C170.446 453.061 170.148 453.053 169.841 453.046C168.976 453.03 168.08 453.014 167.168 452.991C149.683 452.507 132.313 450.003 115.403 445.529C114.059 445.176 112.719 444.809 111.385 444.429C98.5309 440.773 86.0278 435.979 74.0242 430.104C60.8314 402.956 63.308 388.458 60.9179 355.531C65.8239 343.274 148.825 351.93 212.729 365.775C230.073 369.533 246.002 373.677 258.589 377.891C271.594 382.239 281.02 386.657 284.716 390.808C285.579 391.668 286.172 392.761 286.422 393.953Z" fill="#2F2E41"/>
<path opacity="0.2" d="M60.9225 361.168C60.8005 359.129 60.664 357.024 60.5048 354.831C68.4771 334.924 282.4 370.17 286.009 393.254C285.999 395.37 285.908 397.424 285.756 399.429C277.017 376.646 73.7872 343.146 60.9225 361.168Z" fill="black"/>
</g>
<defs>
<clipPath id="clip0_555_23">
<rect width="692" height="453.077" fill="white"/>
</clipPath>
</defs>
</svg>
