<svg width="48" height="48" viewBox="0 0 48 48" fill="none" xmlns="http://www.w3.org/2000/svg">
<rect width="48" height="48" rx="24" fill="#D7E2E9"/>
<path d="M29 14H19C16.2386 14 14 16.2386 14 19V29C14 31.7614 16.2386 34 19 34H29C31.7614 34 34 31.7614 34 29V19C34 16.2386 31.7614 14 29 14Z" stroke="#415A80" stroke-width="2" stroke-linecap="round" stroke-linejoin="round"/>
<path d="M28.0002 23.37C28.1236 24.2022 27.9815 25.0522 27.594 25.799C27.2065 26.5458 26.5933 27.1514 25.8418 27.5297C25.0903 27.9079 24.2386 28.0396 23.408 27.9059C22.5773 27.7723 21.81 27.3801 21.215 26.7852C20.6201 26.1902 20.2279 25.4229 20.0943 24.5922C19.9606 23.7615 20.0923 22.9099 20.4705 22.1584C20.8488 21.4069 21.4544 20.7937 22.2012 20.4062C22.948 20.0187 23.7979 19.8766 24.6302 20C25.4791 20.1259 26.265 20.5215 26.8719 21.1283C27.4787 21.7351 27.8743 22.5211 28.0002 23.37Z" stroke="#415A80" stroke-width="2" stroke-linecap="round" stroke-linejoin="round"/>
<path d="M29.5 18.5H29.51" stroke="#415A80" stroke-width="2" stroke-linecap="round" stroke-linejoin="round"/>
</svg>
