<svg width="48" height="48" viewBox="0 0 48 48" fill="none" xmlns="http://www.w3.org/2000/svg">
<rect width="48" height="48" rx="24" fill="#D7E2E9"/>
<path d="M34.5401 18.42C34.4213 17.9454 34.1794 17.5106 33.8387 17.1594C33.4981 16.8082 33.0708 16.5532 32.6001 16.42C30.8801 16 24.0001 16 24.0001 16C24.0001 16 17.1201 16 15.4001 16.46C14.9293 16.5932 14.5021 16.8482 14.1614 17.1994C13.8208 17.5506 13.5789 17.9854 13.4601 18.46C13.1453 20.2056 12.9913 21.9763 13.0001 23.75C12.9889 25.537 13.1429 27.3213 13.4601 29.08C13.591 29.5398 13.8384 29.9581 14.1782 30.2945C14.5181 30.6308 14.9389 30.8738 15.4001 31C17.1201 31.46 24.0001 31.46 24.0001 31.46C24.0001 31.46 30.8801 31.46 32.6001 31C33.0708 30.8668 33.4981 30.6118 33.8387 30.2606C34.1794 29.9094 34.4213 29.4746 34.5401 29C34.8524 27.2676 35.0064 25.5103 35.0001 23.75C35.0113 21.963 34.8573 20.1787 34.5401 18.42V18.42Z" stroke="#415A80" stroke-width="2" stroke-linecap="round" stroke-linejoin="round"/>
<path d="M21.75 27.02L27.5 23.75L21.75 20.48V27.02Z" stroke="#415A80" stroke-width="2" stroke-linecap="round" stroke-linejoin="round"/>
</svg>
