<svg width="692" height="426" viewBox="0 0 692 426" fill="none" xmlns="http://www.w3.org/2000/svg">
<g clip-path="url(#clip0_487_391)">
<path opacity="0.1" d="M692 273.382C692.012 284.914 690.617 296.405 687.846 307.599C686.914 311.371 685.831 315.065 684.597 318.68C683.088 323.142 681.338 327.52 679.357 331.794C678.358 333.956 677.302 336.075 676.19 338.151C676.208 349.977 673.773 361.678 669.04 372.515C660.483 391.959 645.224 407.68 626.044 416.815C614.053 422.536 600.948 425.545 587.661 425.627H131.365C111.063 425.671 91.1126 420.337 73.5407 410.17L73.2704 410.017C70.7676 408.552 68.3274 407.001 65.9498 405.364C60.6005 401.668 55.5748 397.525 50.9268 392.979C44.6358 386.831 39.0923 379.962 34.4114 372.515C23.4176 355.059 17.5936 334.845 17.6141 314.215C6.48044 294.68 -0.0117188 271.278 -0.0117188 246.132C-0.0117188 214.406 10.3052 185.464 27.2554 163.556C30.7891 158.978 34.66 154.672 38.8355 150.671C42.9555 146.712 47.3837 143.088 52.0784 139.831C55.8344 137.223 59.7599 134.868 63.8289 132.781C65.5268 131.917 67.2307 131.101 68.9639 130.343C70.4855 129.667 72.0249 129.038 73.5818 128.445C75.4501 127.736 77.342 127.084 79.2573 126.489C81.1727 125.893 83.0625 125.372 84.9269 124.926C87.6687 124.256 90.4575 123.711 93.2933 123.292C95.6434 122.946 97.9935 122.705 100.344 122.523C102.212 122.382 104.098 122.305 105.996 122.282H107.024C109.115 122.282 111.195 122.364 113.257 122.505C113.475 122.07 113.71 121.63 113.927 121.201C114.75 119.632 115.602 118.069 116.459 116.542C116.458 116.528 116.458 116.514 116.459 116.501C116.606 116.23 116.753 115.966 116.906 115.707C117.599 114.456 118.322 113.216 119.062 111.988C119.403 111.401 119.738 110.849 120.085 110.296C120.158 110.159 120.238 110.026 120.325 109.897C120.678 109.309 121.036 108.722 121.401 108.134C123.214 105.236 125.1 102.388 127.058 99.5916L127.558 98.8748C127.863 98.44 128.145 98.017 128.486 97.5822C129.297 96.4483 130.131 95.3085 130.971 94.1922C131.559 93.3932 132.146 92.6 132.781 91.8421C134.309 89.8837 135.875 87.9253 137.481 85.9668C139.087 84.0084 140.756 82.0755 142.487 80.168C142.722 79.9036 142.957 79.6451 143.204 79.3865L145.712 76.6487C145.836 76.5194 145.942 76.4019 146.059 76.2844C146.359 75.9613 146.647 75.6381 146.97 75.3267C148.315 73.899 149.696 72.5007 151.082 71.1083C158.139 64.08 165.656 57.5302 173.585 51.5025C173.896 51.2558 174.213 51.0208 174.525 50.7858C176.017 49.6636 177.533 48.5532 179.049 47.4604C187.386 41.479 196.102 36.0429 205.141 31.1859C205.763 30.8275 206.398 30.4926 207.038 30.1636C215.142 25.8765 223.476 22.04 232.002 18.6716C236.65 16.8326 241.403 15.1053 246.185 13.5249C249.37 12.4791 252.566 11.4861 255.803 10.552C260.864 9.09492 265.959 7.78865 271.09 6.63318C286.207 3.2413 301.586 1.14602 317.059 0.37015C321.759 0.131223 326.512 0.00784422 331.318 1.05373e-05C354.507 -0.03069 377.607 2.89126 400.058 8.69539C400.29 9.0462 400.608 9.33219 400.981 9.52644C401.354 9.7207 401.771 9.81684 402.191 9.80582H404.165C405.023 10.0408 405.875 10.2758 406.733 10.5226C411.523 11.9013 416.245 13.4074 420.898 15.0407L422.073 15.4637C433.558 19.5476 444.732 24.4564 455.509 30.1519C465.224 35.2736 474.577 41.0527 483.505 47.4486C484.879 48.4357 486.235 49.4305 487.57 50.4333C489.192 49.3953 490.841 48.4004 492.517 47.4486C498.991 43.7615 505.867 40.8301 513.01 38.7121C527.944 34.2928 543.745 33.6749 558.978 36.9143C578.513 41.0563 596.198 51.338 610.481 65.9616C616.296 71.9448 621.473 78.5175 625.927 85.5732C626.25 86.0785 626.573 86.5896 626.885 87.1066C630.713 93.3514 634.003 99.9103 636.72 106.712C636.82 106.965 636.92 107.2 637.008 107.447C639.516 113.816 641.539 120.366 643.059 127.041C643.13 127.382 643.212 127.716 643.282 128.057C644.704 134.517 645.67 141.068 646.173 147.663C646.173 147.898 646.173 148.139 646.22 148.386C646.467 151.797 646.592 155.244 646.596 158.726C646.596 161.84 646.49 164.93 646.296 167.997C646.296 168.332 646.249 168.679 646.22 169.025C646.167 169.913 646.091 170.788 646.014 171.681C650.502 175.301 654.701 179.263 658.576 183.531C660.287 185.4 661.944 187.339 663.546 189.348C668.426 195.464 672.714 202.028 676.354 208.954C686.289 227.708 692 249.769 692 273.382Z" fill="#415A80"/>
<path opacity="0.1" d="M625.61 414.641C625.61 418.653 611.785 422.414 587.661 425.645H131.365C111.064 425.688 91.1126 420.355 73.5408 410.187L73.2705 410.034C80.2033 407.508 92.7176 405.152 109.75 403.025L110.514 402.931C118.152 401.997 126.688 401.11 136.018 400.27C136.253 400.27 136.494 400.235 136.729 400.205C144.132 399.547 152.007 398.93 160.354 398.354C160.618 398.354 160.877 398.307 161.141 398.296C164.361 398.065 167.647 397.845 171 397.638L172.292 397.555C196.704 396.04 224.453 394.829 254.546 394.03H254.581C258.796 393.913 263.055 393.809 267.36 393.719C272.146 393.605 276.991 393.505 281.895 393.419C285.638 393.337 289.427 393.278 293.229 393.219H293.317C310.467 392.961 328.186 392.832 346.306 392.832C391.11 392.832 433.459 393.648 470.985 395.117H471.09C476.86 395.34 482.524 395.587 488.046 395.84L492.747 396.063C498.978 396.361 505.049 396.68 510.96 397.021C580.464 400.975 625.61 407.396 625.61 414.641Z" fill="#415A80"/>
<g opacity="0.2">
<path d="M399.682 390.135C399.663 390.769 399.59 391.4 399.465 392.021C395.375 391.371 391.263 390.783 387.126 390.258C387.126 390.094 387.126 389.923 387.126 389.753C387.165 387.991 387.672 386.272 388.595 384.771C389.806 382.856 391.645 381.657 393.672 381.722C395.698 381.786 397.455 383.096 398.542 385.076C399.364 386.632 399.758 388.378 399.682 390.135Z" fill="#3F3D56"/>
<path d="M400.02 380.095C400.163 375.551 397.466 371.779 393.996 371.67C390.526 371.56 387.596 375.154 387.453 379.698C387.309 384.242 390.006 388.014 393.476 388.124C396.946 388.233 399.876 384.639 400.02 380.095Z" fill="#3F3D56"/>
<path d="M400.34 370.036C400.484 365.493 397.787 361.72 394.317 361.611C390.846 361.501 387.917 365.096 387.773 369.639C387.63 374.183 390.326 377.955 393.797 378.065C397.267 378.175 400.196 374.58 400.34 370.036Z" fill="#3F3D56"/>
<path d="M400.655 359.978C400.798 355.434 398.102 351.662 394.631 351.552C391.161 351.442 388.232 355.037 388.088 359.581C387.945 364.124 390.641 367.897 394.112 368.006C397.582 368.116 400.511 364.522 400.655 359.978Z" fill="#3F3D56"/>
<path d="M400.969 349.919C401.113 345.375 398.416 341.603 394.946 341.493C391.476 341.384 388.546 344.978 388.403 349.522C388.259 354.066 390.956 357.838 394.426 357.948C397.896 358.057 400.826 354.463 400.969 349.919Z" fill="#3F3D56"/>
<path d="M373.302 280.127C372.475 279.006 371.729 277.828 371.07 276.601L387.673 274.41L369.801 273.981C368.206 270.198 367.399 266.129 367.43 262.024C367.462 257.918 368.33 253.862 369.983 250.104L393.554 263.294L371.963 246.35C374.141 242.827 377.022 239.791 380.426 237.431C383.83 235.072 387.684 233.44 391.748 232.637C395.811 231.834 399.996 231.877 404.042 232.765C408.088 233.652 411.907 235.364 415.261 237.793C418.616 240.223 421.433 243.318 423.538 246.885C425.642 250.453 426.989 254.416 427.493 258.527C427.997 262.638 427.648 266.809 426.468 270.779C425.287 274.749 423.301 278.433 420.633 281.601C421.92 283.344 423.014 285.221 423.894 287.2L402.103 297.658L425.21 290.708C426.665 295.509 426.9 300.598 425.892 305.513C424.885 310.428 422.667 315.014 419.441 318.856C422.795 323.408 424.802 328.812 425.23 334.45C425.658 340.089 424.491 345.734 421.862 350.74C419.233 355.746 415.248 359.911 410.363 362.759C405.478 365.607 399.89 367.023 394.238 366.845C388.587 366.667 383.099 364.902 378.403 361.752C373.708 358.601 369.993 354.193 367.685 349.032C365.376 343.87 364.567 338.163 365.349 332.562C366.132 326.962 368.475 321.695 372.109 317.364C368.101 311.924 366.038 305.295 366.251 298.542C366.464 291.788 368.941 285.303 373.285 280.127H373.302Z" fill="#415A80"/>
<path opacity="0.1" d="M426.491 300.443C426.285 307.201 423.801 313.69 419.441 318.856C422.795 323.408 424.802 328.812 425.23 334.45C425.658 340.089 424.491 345.734 421.862 350.74C419.233 355.746 415.248 359.911 410.363 362.759C405.478 365.607 399.89 367.023 394.238 366.845C388.587 366.667 383.099 364.902 378.403 361.752C373.708 358.601 369.993 354.193 367.685 349.032C365.376 343.87 364.567 338.162 365.349 332.562C366.132 326.962 368.475 321.695 372.109 317.364C368.249 312.117 426.597 297.065 426.491 300.443Z" fill="black"/>
</g>
<g opacity="0.2">
<path d="M310.378 390.135C310.359 390.769 310.287 391.4 310.161 392.021C306.072 391.371 301.959 390.783 297.823 390.258C297.823 390.094 297.823 389.923 297.823 389.753C297.861 387.991 298.368 386.272 299.292 384.771C300.502 382.856 302.341 381.657 304.368 381.722C306.395 381.786 308.151 383.096 309.238 385.076C310.06 386.632 310.454 388.378 310.378 390.135Z" fill="#3F3D56"/>
<path d="M310.71 380.098C310.853 375.554 308.156 371.782 304.686 371.672C301.216 371.562 298.286 375.157 298.143 379.701C297.999 384.244 300.696 388.017 304.166 388.126C307.636 388.236 310.566 384.641 310.71 380.098Z" fill="#3F3D56"/>
<path d="M311.03 370.039C311.173 365.495 308.477 361.723 305.006 361.613C301.536 361.504 298.607 365.098 298.463 369.642C298.32 374.186 301.016 377.958 304.487 378.068C307.957 378.177 310.886 374.583 311.03 370.039Z" fill="#3F3D56"/>
<path d="M311.345 359.98C311.488 355.437 308.792 351.664 305.321 351.555C301.851 351.445 298.922 355.039 298.778 359.583C298.634 364.127 301.331 367.899 304.801 368.009C308.272 368.118 311.201 364.524 311.345 359.98Z" fill="#3F3D56"/>
<path d="M311.659 349.921C311.803 345.378 309.106 341.605 305.636 341.496C302.166 341.386 299.236 344.981 299.093 349.524C298.949 354.068 301.646 357.84 305.116 357.95C308.586 358.06 311.516 354.465 311.659 349.921Z" fill="#3F3D56"/>
<path d="M283.998 280.127C283.171 279.006 282.425 277.828 281.766 276.601L298.369 274.41L280.497 273.981C278.902 270.198 278.095 266.129 278.127 262.024C278.158 257.918 279.026 253.862 280.679 250.104L304.25 263.294L282.659 246.35C284.837 242.827 287.718 239.791 291.122 237.431C294.527 235.072 298.381 233.44 302.444 232.637C306.507 231.834 310.692 231.877 314.738 232.765C318.784 233.652 322.603 235.364 325.958 237.793C329.312 240.223 332.13 243.318 334.234 246.885C336.339 250.453 337.685 254.416 338.189 258.527C338.693 262.638 338.344 266.809 337.164 270.779C335.984 274.749 333.998 278.433 331.33 281.601C332.616 283.344 333.71 285.221 334.59 287.2L312.799 297.658L335.906 290.708C337.362 295.509 337.596 300.598 336.589 305.513C335.581 310.428 333.364 315.014 330.137 318.856C333.492 323.408 335.498 328.812 335.926 334.45C336.354 340.089 335.187 345.734 332.558 350.74C329.929 355.746 325.944 359.911 321.059 362.759C316.174 365.607 310.586 367.023 304.935 366.845C299.283 366.667 293.796 364.902 289.1 361.752C284.404 358.601 280.689 354.193 278.381 349.032C276.073 343.87 275.263 338.163 276.046 332.562C276.828 326.962 279.171 321.695 282.806 317.364C278.798 311.924 276.735 305.295 276.948 298.542C277.161 291.788 279.638 285.303 283.981 280.127H283.998Z" fill="#415A80"/>
<path opacity="0.1" d="M337.187 300.443C336.982 307.201 334.497 313.69 330.137 318.856C333.492 323.408 335.498 328.812 335.926 334.45C336.354 340.089 335.187 345.734 332.558 350.74C329.929 355.746 325.944 359.911 321.059 362.759C316.174 365.607 310.586 367.023 304.935 366.845C299.283 366.667 293.796 364.902 289.1 361.752C284.404 358.601 280.689 354.193 278.381 349.032C276.073 343.87 275.263 338.162 276.046 332.562C276.828 326.962 279.171 321.695 282.806 317.364C278.946 312.117 337.293 297.065 337.187 300.443Z" fill="black"/>
</g>
<g opacity="0.2">
<path d="M554.319 396.563C554.275 397.763 554.131 398.958 553.891 400.135C546.018 398.877 538.088 397.753 530.102 396.762C530.102 396.445 530.102 396.122 530.102 395.793C530.176 392.4 531.154 389.088 532.933 386.199C535.284 382.515 538.809 380.206 542.704 380.323C546.599 380.441 549.989 382.973 552.104 386.786C553.699 389.79 554.464 393.165 554.319 396.563Z" fill="#3F3D56"/>
<path d="M554.959 377.219C555.235 368.469 550.041 361.204 543.357 360.993C536.672 360.782 531.03 367.704 530.753 376.454C530.477 385.204 535.671 392.469 542.355 392.68C549.04 392.891 554.682 385.969 554.959 377.219Z" fill="#3F3D56"/>
<path d="M555.569 357.854C555.846 349.104 550.651 341.839 543.967 341.628C537.283 341.417 531.64 348.339 531.363 357.089C531.087 365.839 536.281 373.104 542.966 373.315C549.65 373.526 555.293 366.604 555.569 357.854Z" fill="#3F3D56"/>
<path d="M556.186 338.489C556.462 329.739 551.268 322.474 544.584 322.263C537.899 322.052 532.257 328.974 531.98 337.724C531.704 346.474 536.898 353.739 543.582 353.95C550.267 354.161 555.909 347.239 556.186 338.489Z" fill="#3F3D56"/>
<path d="M556.107 318.243C556.37 309.488 551.162 302.229 544.474 302.028C537.786 301.827 532.152 308.762 531.89 317.516C531.627 326.271 536.835 333.53 543.523 333.731C550.211 333.931 555.845 326.997 556.107 318.243Z" fill="#3F3D56"/>
<path d="M503.528 184.783C501.942 182.626 500.507 180.363 499.233 178.009L531.194 173.79L496.795 172.962C493.722 165.679 492.167 157.847 492.226 149.943C492.285 142.039 493.955 134.23 497.135 126.994L542.522 152.381L500.96 119.761C505.163 112.995 510.713 107.167 517.267 102.641C523.82 98.1141 531.236 94.9857 539.051 93.4505C546.867 91.9153 554.915 92.0062 562.693 93.7176C570.472 95.429 577.815 98.7242 584.264 103.398C590.714 108.071 596.132 114.023 600.18 120.882C604.228 127.742 606.821 135.361 607.795 143.266C608.77 151.171 608.106 159.192 605.845 166.829C603.584 174.466 599.774 181.556 594.653 187.656C597.128 191.013 599.234 194.628 600.934 198.437L558.978 218.583L603.46 205.188C606.263 214.42 606.72 224.206 604.788 233.66C602.856 243.113 598.598 251.935 592.397 259.328C598.854 268.091 602.715 278.494 603.539 289.348C604.362 300.202 602.114 311.069 597.053 320.705C591.991 330.342 584.32 338.36 574.917 343.842C565.513 349.325 554.756 352.05 543.876 351.707C532.997 351.364 522.433 347.966 513.394 341.903C504.354 335.839 497.203 327.354 492.759 317.417C488.314 307.481 486.756 296.494 488.261 285.714C489.766 274.933 494.275 264.794 501.272 256.455C493.56 245.983 489.59 233.224 489.999 220.226C490.408 207.227 495.173 194.743 503.528 184.777V184.783Z" fill="#415A80"/>
<path opacity="0.1" d="M605.934 223.889C605.548 236.89 600.787 249.381 592.42 259.34C598.878 268.103 602.739 278.506 603.562 289.36C604.385 300.214 602.138 311.08 597.076 320.717C592.015 330.354 584.344 338.372 574.94 343.854C565.536 349.336 554.78 352.062 543.9 351.719C533.02 351.376 522.457 347.978 513.417 341.914C504.377 335.851 497.226 327.365 492.782 317.429C488.338 307.493 486.779 296.506 488.284 285.725C489.79 274.945 494.299 264.806 501.295 256.467C493.81 246.356 606.139 217.385 605.934 223.889Z" fill="black"/>
</g>
<path d="M92.7231 397.597L98.8863 397.579H107.576L118.563 219.1L227.367 37.537L222.637 32.4608V19.6057L104.967 214.894L92.7231 397.597Z" fill="#F1C0C0"/>
<path opacity="0.1" d="M99.5444 397.579H107.576L118.563 219.1L227.367 37.537L222.637 32.4608L110.408 216.38L99.5444 397.579Z" fill="black"/>
<path d="M74.563 399.083L356.487 420.657L356.728 420.675L629.57 403.895L629.775 403.883V392.362L329.138 386.845L78.3173 386.604H76.4842L76.2844 387.897L74.563 399.083Z" fill="#F1C0C0"/>
<path opacity="0.1" d="M74.563 399.083L356.487 420.657L356.728 420.675L629.57 403.895L629.775 403.672V392.603H629.534L356.487 401.721L78.3173 386.604H78.2761L77.7826 386.927L76.2844 387.897L74.563 399.083Z" fill="black"/>
<path opacity="0.1" d="M74.563 399.083L356.487 420.657V401.721L77.7826 386.927L76.2844 387.896L74.563 399.083Z" fill="black"/>
<path d="M222.602 32.2199L346.893 165.624L343.051 400.282L353.609 401.556L353.785 401.58H364.343L365.606 175.7L598.343 253.441L602.267 391.862L610.763 392.814L613.642 393.137L606.979 243.841L363.685 158.426L230.281 19.7409H222.602V32.2199Z" fill="#F1C0C0"/>
<path opacity="0.1" d="M364.648 171.381L365.606 175.7L598.342 253.441L602.267 391.862L610.763 392.814L604.1 250.562L364.648 171.381Z" fill="black"/>
<path opacity="0.1" d="M222.602 32.2199L346.893 165.624L343.051 400.282L353.609 401.556L356.488 157.945L222.602 19.7409V32.2199Z" fill="black"/>
<path d="M365.101 265.556L450.462 282.365L450.492 282.371L599.999 311.824L606.844 309.08L606.821 308.598L606.374 299.051L365.189 250.316L365.101 265.556Z" fill="#F1C0C0"/>
<path opacity="0.1" d="M450.492 282.371L599.999 311.824L606.844 309.08L606.821 308.598L450.492 282.371Z" fill="black"/>
<path d="M456.208 205.963L458.517 333.069L459.71 398.278L470.221 397.926L476.836 397.702L474.78 207.802L470.221 206.286L469.222 205.963H456.208Z" fill="#F1C0C0"/>
<path opacity="0.1" d="M456.302 205.934V205.963L458.517 333.069L459.71 398.278L470.221 397.926V205.934H456.302Z" fill="black"/>
<path d="M291.566 238.424C292.182 238.759 292.772 239.142 293.328 239.57C293.987 240.146 294.578 240.794 295.091 241.503C297.611 244.763 299.938 248.553 299.691 252.666C299.697 253.264 299.583 253.858 299.359 254.412C299.134 254.967 298.802 255.471 298.381 255.897C297.341 256.784 295.849 256.825 294.486 256.825C293.005 256.825 291.448 256.825 290.167 256.062C288.887 255.298 287.817 253.811 286.302 253.847C286.088 253.882 285.869 253.882 285.655 253.847C285.132 253.676 285.027 252.989 284.686 252.554C284.098 251.773 282.859 251.966 281.936 252.307C281.014 252.648 279.992 253.159 279.081 252.765C278.552 252.487 278.12 252.054 277.841 251.526C275.661 248.001 275.197 243.765 274.786 239.67C274.533 237.178 272.606 228.683 277.923 230.616C280.274 231.462 282.471 233.154 284.609 234.394L291.566 238.424Z" fill="#3F3D56"/>
<path d="M286.313 239.264C286.788 239.606 287.364 239.779 287.948 239.755C288.533 239.732 289.093 239.513 289.539 239.135C290.414 238.344 290.971 237.263 291.107 236.092C291.695 235.909 291.995 236.679 292.371 237.149C293.029 237.948 294.368 237.936 294.968 238.788C295.385 239.376 295.291 240.192 295.584 240.856C295.966 241.714 296.912 242.161 297.559 242.854C298.169 243.611 298.61 244.491 298.851 245.433L299.815 248.324C300.276 249.526 300.572 250.785 300.696 252.066C300.757 252.707 300.689 253.353 300.498 253.968C300.306 254.582 299.994 255.152 299.58 255.644C298.287 257.037 296.166 257.184 294.292 257.143C293.666 257.156 293.041 257.083 292.435 256.925C290.773 256.408 289.709 254.734 289.269 253.048C288.828 251.361 288.875 249.593 288.616 247.866C288.337 246.169 287.844 244.514 287.148 242.942C286.631 241.72 285.209 239.899 285.232 238.6C285.655 238.6 285.961 238.988 286.313 239.264Z" fill="#3F3D56"/>
<path d="M288.423 233.313C288.148 232.478 287.988 231.611 287.947 230.733C287.947 228.971 288.752 227.314 289.562 225.739L282.847 226.65C282.036 226.762 281.131 226.926 280.673 227.602C280.499 227.937 280.408 228.308 280.408 228.686C280.408 229.063 280.499 229.435 280.673 229.77C281.01 230.44 281.278 231.143 281.472 231.867C281.487 232.501 281.56 233.132 281.69 233.753C281.899 234.209 282.192 234.622 282.553 234.969C284.474 237.096 285.914 239.605 287.347 242.09C287.306 242.02 291.395 238.853 291.231 237.819C291.137 237.231 289.956 236.526 289.58 235.962C289.061 235.144 288.67 234.25 288.423 233.313Z" fill="#BE6F72"/>
<path d="M346 210.358V216.145L246.902 235.475L241.761 238.588H224.024V235.328L321.389 211.803L346 210.358Z" fill="#F1C0C0"/>
<path opacity="0.1" d="M346 216.145L246.902 235.475L241.761 238.588H224.024L322.111 217.596L346 216.145Z" fill="black"/>
<path d="M266.437 374.642C265.333 373.305 263.809 372.381 262.113 372.02C260.417 371.66 258.648 371.884 257.096 372.656C256.763 372.813 256.47 373.041 256.238 373.326C255.65 374.148 256.026 375.282 256.079 376.299C256.214 378.778 254.24 380.793 252.466 382.527C251.514 383.455 250.545 384.448 250.116 385.711C249.687 386.974 250.004 388.578 251.156 389.236C251.658 389.488 252.205 389.64 252.766 389.683C254.644 390.049 256.569 390.103 258.465 389.841C260.339 389.483 262.178 388.419 262.989 386.692C263.145 386.224 263.404 385.796 263.747 385.441C264.781 384.624 266.367 385.582 267.542 385C268.511 384.518 268.553 383.76 268.564 382.762C268.6 380 268.188 376.875 266.437 374.642Z" fill="#415A80"/>
<path d="M280.538 374.536C281.261 376.44 281.361 378.514 281.455 380.547C281.507 381.722 281.543 382.979 280.908 383.972C280.274 384.965 279.034 385.488 277.847 385.734C275.397 386.24 272.559 385.764 270.979 383.819C269.769 382.333 269.516 380.294 269.739 378.367C269.927 376.786 270.327 374.936 269.193 373.813C268.899 373.514 268.517 373.302 268.247 372.979C267.659 372.262 267.753 371.181 268.071 370.3C268.484 369.457 268.794 368.568 268.993 367.65C269.04 367.216 276.948 367.956 277.677 368.314C278.67 368.802 278.517 369.619 278.817 370.606C279.234 371.98 280.033 373.22 280.538 374.536Z" fill="#415A80"/>
<path d="M281.989 290.132C283.54 291.137 284.139 293.111 284.38 294.944C285.044 299.967 283.881 305.044 283.793 310.114C283.711 317.217 285.767 324.45 284.01 331.329C282.959 335.442 283.852 340.142 282.865 344.296C282.571 345.53 282.03 346.693 281.748 347.927C281.161 350.6 281.778 353.397 282.606 356.011C282.871 356.716 283.038 357.453 283.105 358.203C283.066 359.357 282.773 360.488 282.248 361.517L278.722 369.854C278.329 370.788 276.778 370.94 275.785 371.064C273.916 371.287 271.831 371.446 270.344 370.288C268.858 369.131 268.5 367.192 268.27 365.382C267.831 361.909 267.635 358.408 267.683 354.907C267.747 353.993 267.666 353.075 267.442 352.187C267.119 351.182 266.408 350.312 266.214 349.249C265.967 347.874 266.666 346.523 266.925 345.136C267.102 343.87 267.082 342.584 266.866 341.323C266.637 339.443 266.373 337.563 266.073 335.695C265.65 333.08 266.255 330.501 266.661 327.881C267.042 325.419 266.555 322.91 266.073 320.466C266.115 322.45 265.867 324.429 265.339 326.341C265.027 327.276 264.581 328.169 264.31 329.12C263.106 333.392 265.674 337.875 265.309 342.299C265.139 344.367 264.328 346.411 264.557 348.45C264.716 349.942 265.409 351.311 265.885 352.733C266.361 354.155 266.608 355.782 265.885 357.11C263.976 360.718 265.403 365.623 267.113 369.325C267.46 369.981 267.762 370.66 268.018 371.358C268.523 373.026 268.1 374.818 268.235 376.557C267.743 376.638 267.239 376.605 266.762 376.461C266.284 376.318 265.846 376.067 265.48 375.729C265.221 375.459 265.01 375.141 264.757 374.859C264.051 374.187 263.215 373.665 262.301 373.326C261.764 373.025 261.153 372.885 260.539 372.92C259.893 373.101 259.312 373.462 258.864 373.96C258.283 374.471 257.667 374.941 257.019 375.365C256.744 375.576 256.421 375.719 256.079 375.782C255.907 375.808 255.731 375.78 255.576 375.701C255.421 375.622 255.295 375.496 255.216 375.341C255.179 375.243 255.157 375.14 255.151 375.036C254.933 373.262 254.817 371.476 254.804 369.689C254.804 366.616 251.126 364.501 250.662 361.464C250.292 359.014 250.979 356.517 250.75 354.049C250.639 352.78 250.286 351.534 250.31 350.265C250.31 349.443 250.498 348.638 250.562 347.821C250.616 346.915 250.602 346.006 250.521 345.101L250.339 342.263C250.163 339.461 249.969 336.6 248.864 334.038C247.555 331.047 246.779 327.849 246.573 324.591C246.456 322.534 246.532 320.478 246.297 318.416C246.085 316.553 245.615 314.702 245.75 312.834C245.862 311.389 246.338 309.991 246.45 308.545C246.679 305.766 245.621 303.064 244.793 300.402C243.964 297.741 243.353 294.791 244.44 292.224C244.596 291.802 244.854 291.427 245.192 291.131C245.609 290.855 246.083 290.678 246.579 290.614C256.659 288.496 266.992 287.837 277.26 288.657C278.933 288.752 280.558 289.259 281.989 290.132Z" fill="#3F3D56"/>
<path d="M248.635 227.731C253.834 227.731 258.047 223.517 258.047 218.319C258.047 213.121 253.834 208.907 248.635 208.907C243.437 208.907 239.223 213.121 239.223 218.319C239.223 223.517 243.437 227.731 248.635 227.731Z" fill="#BE6F72"/>
<path d="M246.814 230.075C246.949 230.613 246.949 231.176 246.814 231.714C246.666 232.09 246.458 232.44 246.197 232.748C245.286 233.924 244.278 235.02 243.183 236.027C243.741 237.272 244.745 238.264 245.997 238.806C247.241 239.335 248.545 239.708 249.881 239.916C250.547 240.092 251.241 240.139 251.925 240.057C252.556 239.899 253.153 239.628 253.688 239.258L258.917 236.127C259.706 235.699 260.437 235.172 261.091 234.558C262.05 233.572 262.593 232.255 262.607 230.88C262.631 230.634 262.564 230.387 262.419 230.187C262.218 230.012 261.967 229.907 261.702 229.887C259.863 229.482 258.412 227.99 257.589 226.297C256.846 224.563 256.365 222.727 256.162 220.851L250.586 223.789C249.758 224.229 248.935 224.67 248.077 225.052C247.531 225.299 246.426 225.504 246.038 226.004C245.298 226.926 246.62 228.965 246.814 230.075Z" fill="#BE6F72"/>
<path d="M243.218 234.317C242.424 234.968 241.805 235.806 241.414 236.755C241.05 237.93 241.414 239.17 241.743 240.333C243.285 245.292 244.464 250.356 245.269 255.486C245.762 259.011 245.944 262.589 246.185 266.155C246.679 273.429 247.395 285.027 248.353 292.253C251.878 292.412 255.315 291.384 258.811 291.008C265.344 290.314 272.072 291.901 278.47 290.42C276.919 284.292 275.368 273.828 273.817 267.706C273.13 265.294 272.654 262.827 272.395 260.333C272.26 258.541 272.342 256.743 272.365 254.939C272.418 251.414 272.224 247.889 272.03 244.364C271.807 240.251 271.584 236.139 270.609 232.114C270.541 231.601 270.3 231.127 269.927 230.769C269.34 230.34 268.576 230.492 267.877 230.586C265.736 230.858 263.569 230.345 261.778 229.141C261.003 228.612 259.963 227.966 259.24 228.554C258.932 228.908 258.728 229.341 258.652 229.805C258.333 230.636 257.839 231.389 257.205 232.015C256.571 232.64 255.81 233.122 254.975 233.43C253.3 234.036 251.547 234.397 249.769 234.499C249.225 234.616 248.658 234.552 248.153 234.317C247.319 233.806 247.26 231.967 246.209 231.844C245.286 231.738 243.841 233.724 243.218 234.317Z" fill="#3F3D56"/>
<path d="M257.119 248.665C254.951 246.591 253.999 243.582 252.419 241.027C251.342 239.308 249.968 237.796 248.359 236.562C247.55 236.027 246.808 235.398 246.15 234.687C245.592 234 245.169 233.083 244.323 232.819C243.973 232.743 243.61 232.753 243.265 232.848C242.92 232.943 242.604 233.121 242.343 233.365C241.825 233.859 241.334 234.381 240.874 234.928C238.383 237.507 234.006 237.866 232.031 240.85C231.499 241.483 231.137 242.242 230.98 243.054C230.411 247.398 231.535 251.794 234.117 255.333C234.617 256.153 235.385 256.776 236.291 257.096C236.168 258.191 236.313 259.3 236.714 260.327C237.802 264.045 239.139 267.687 240.715 271.226C240.338 272.61 240.075 274.023 239.928 275.45C239.517 279.04 239.898 282.682 239.511 286.278C239.193 289.216 238.336 292.077 238.306 295.02C238.306 295.49 238.347 296.049 238.753 296.289C238.968 296.4 239.21 296.451 239.452 296.436L246.678 296.654C250.873 296.777 255.109 296.9 259.24 296.125C259.79 296.044 260.323 295.875 260.82 295.626C262.219 294.844 262.683 293.082 262.906 291.513C263.198 289.478 263.314 287.422 263.253 285.367C264.128 288.135 265.168 290.996 267.812 292.194C269.21 292.829 270.808 292.782 272.342 292.741C275.647 292.594 278.941 292.254 282.206 291.724C282.407 291.749 282.612 291.727 282.803 291.659C282.994 291.59 283.166 291.479 283.306 291.332C283.446 291.185 283.55 291.007 283.609 290.813C283.668 290.619 283.68 290.414 283.646 290.214L283.681 287.007C283.751 280.491 282.136 274.263 281.507 267.777C281.307 265.732 281.325 263.664 280.826 261.661C280.62 260.82 280.32 259.998 280.138 259.152C279.981 258.324 279.883 257.485 279.844 256.643L279.386 250.18C279.169 247.19 278.857 244.305 278.628 241.32C278.502 238.414 278.081 235.528 277.371 232.707C276.86 230.945 275.796 228.947 273.957 228.73C272.976 228.618 272.024 229.047 271.09 229.347C268.794 230.07 266.33 230.059 264.04 229.317C263.332 229.038 262.595 228.841 261.843 228.73C261.464 228.678 261.078 228.728 260.725 228.875C260.372 229.022 260.064 229.259 259.833 229.564C259.605 230.023 259.498 230.533 259.522 231.045C259.246 236.914 258.735 242.96 257.119 248.665Z" fill="#415A80"/>
<path d="M247.666 248.841C244.957 245.985 242.178 243.077 238.688 241.262C237.314 240.545 235.751 240.004 234.229 240.275C232.707 240.545 231.291 241.867 231.362 243.412C231.409 244.37 231.991 245.216 232.173 246.156C232.384 247.213 232.079 248.341 232.408 249.364C232.675 250.037 233.075 250.651 233.583 251.167L237.742 256.097C239.505 258.153 241.268 260.239 243.535 261.661C245.803 263.082 248.741 263.746 251.232 262.736C253.004 261.912 254.478 260.559 255.45 258.864C256.485 257.219 257.213 255.421 258.182 253.723C259.691 251.01 261.682 248.595 264.058 246.596C262.836 246.279 261.302 245.833 260.533 244.834C260.314 244.516 260.127 244.178 259.974 243.823L259.023 241.767C258.699 241.75 258.375 241.8 258.072 241.915C257.769 242.029 257.492 242.205 257.26 242.431C256.852 242.903 256.414 243.348 255.95 243.765C255.121 244.387 253.999 244.558 253.247 245.269C252.956 245.574 252.693 245.904 252.46 246.256C251.891 247.003 251.169 247.621 250.342 248.067C249.516 248.512 248.603 248.776 247.666 248.841Z" fill="#3F3D56"/>
<path d="M264.275 236.556C266.314 232.837 266.22 228.377 266.802 224.176C266.865 223.064 267.255 221.995 267.924 221.104C269.099 219.776 271.173 219.758 272.947 219.929C273.47 219.987 274.122 220.234 274.093 220.757C274.052 220.944 273.96 221.117 273.829 221.256C272.109 223.476 271.097 226.162 270.926 228.965C271.849 229.605 273.276 228.289 274.163 228.965C274.751 229.458 274.481 230.434 274.128 231.139C273.31 232.772 272.465 234.394 271.596 236.003C270.902 237.422 269.997 238.728 268.911 239.875C268.165 240.592 267.289 241.156 266.531 241.861C264.769 243.512 263.705 245.844 261.884 247.454C261.73 247.621 261.522 247.727 261.297 247.754C261.065 247.737 260.846 247.64 260.68 247.478C259.77 246.738 259.015 245.825 258.459 244.793C257.766 243.512 257.871 243.136 258.964 242.231C261.009 240.615 263 238.882 264.275 236.556Z" fill="#BE6F72"/>
<path d="M244.258 246.314C244.611 246.532 245.045 246.779 245.433 246.596C245.592 246.501 245.726 246.37 245.827 246.215C246.498 245.318 247.059 244.344 247.495 243.312C247.57 243.166 247.613 243.006 247.619 242.842C247.619 242.466 247.284 242.19 246.972 241.973C245.304 240.909 243.51 240.057 241.632 239.435C240.081 238.847 238.459 238.336 236.814 238.483C236.196 238.524 235.593 238.69 235.04 238.971C234.488 239.252 233.998 239.641 233.6 240.116C232.425 241.626 234.393 242.084 235.627 242.631C238.483 243.929 241.573 244.681 244.258 246.314Z" fill="#415A80"/>
<path opacity="0.1" d="M242.407 256.302C242.387 256.436 242.399 256.573 242.442 256.702C242.485 256.831 242.558 256.947 242.654 257.043C242.824 256.208 242.601 255.327 242.777 254.487C243.036 253.224 244.264 252.272 244.37 251.003C242.119 250.562 242.425 254.939 242.407 256.302Z" fill="black"/>
<path opacity="0.2" d="M346 210.358V216.145L322.111 217.596L321.389 211.803L346 210.358Z" fill="black"/>
<path d="M240.163 219.717C241.656 218.501 240.792 215.951 241.802 214.318C242.39 213.425 243.383 212.955 244.358 212.555C245.535 212.004 246.796 211.655 248.089 211.521C248.736 211.459 249.389 211.543 250 211.768C250.61 211.993 251.162 212.352 251.614 212.82C251.996 213.254 252.254 213.783 252.613 214.236C253.057 214.763 253.635 215.161 254.287 215.387C254.939 215.612 255.639 215.657 256.314 215.516C257.096 215.34 257.906 214.747 257.854 213.948C257.765 213.462 257.517 213.019 257.149 212.69L255.468 210.828C253.559 208.713 251.438 206.468 248.635 205.94C246.685 205.57 244.687 206.092 242.807 206.721C242.049 206.974 241.197 207.35 240.986 208.119C240.845 208.648 241.056 209.224 240.933 209.759C240.692 210.822 239.329 211.18 238.694 212.073C238.06 212.966 238.254 214.024 238.072 215.011C237.889 215.998 237.361 216.962 237.296 217.984C237.255 218.601 237.566 219.747 238.26 219.97C238.953 220.193 239.734 218.983 240.163 219.717Z" fill="#3F3D56"/>
<path d="M257.284 213.102C256.788 210.517 255.72 208.075 254.158 205.957C252.769 203.978 250.836 202.444 248.594 201.539C247.473 201.101 246.268 200.923 245.068 201.017C243.868 201.112 242.706 201.477 241.667 202.085C240.126 203.186 238.926 204.699 238.207 206.451C236.685 209.729 236.121 213.736 237.889 216.885C238.594 216.027 239.805 216.415 240.874 216.104C242.214 215.722 243.348 214.829 244.622 214.271C248.471 212.573 253.171 213.948 257.284 213.102Z" fill="#FED253"/>
<path opacity="0.1" d="M238.788 212.919C238.653 211.862 238.565 210.634 239.317 209.882C239.354 209.836 239.402 209.799 239.456 209.775C239.51 209.75 239.569 209.739 239.628 209.741C239.681 209.758 239.729 209.786 239.77 209.822C239.812 209.858 239.845 209.903 239.869 209.952C240.303 210.638 240.673 211.361 240.974 212.115C240.536 212.014 240.078 212.046 239.659 212.209C239.24 212.371 238.879 212.656 238.624 213.025" fill="black"/>
<path opacity="0.1" d="M252.519 209.935L252.307 207.837C252.273 207.665 252.287 207.486 252.348 207.32C252.437 207.182 252.574 207.081 252.732 207.038C252.891 206.995 253.059 207.011 253.206 207.085C253.495 207.246 253.733 207.484 253.894 207.773C254.383 208.523 254.789 209.325 255.104 210.164C254.158 209.982 253.184 209.994 252.243 210.199" fill="black"/>
<path opacity="0.1" d="M257.777 295.061V299.856L253.729 300.126H232.437V295.061H257.777Z" fill="black"/>
<path d="M257.777 295.062V300.126H232.437L165.118 215.798V211.815H179.231L257.777 295.062Z" fill="#F1C0C0"/>
<path opacity="0.1" d="M257.777 295.062V300.126H232.437L165.118 215.798V211.815H179.231L257.777 295.062Z" fill="black"/>
<path opacity="0.1" d="M257.777 295.062V300.126H232.437L165.118 215.798V211.815L232.801 295.062H257.777Z" fill="black"/>
<path d="M173.943 379.583C173.987 379.821 173.982 380.066 173.927 380.302C173.873 380.539 173.77 380.761 173.625 380.956C173.481 381.15 173.298 381.313 173.088 381.434C172.877 381.554 172.645 381.63 172.404 381.657C170.77 382.209 169.037 382.756 167.88 384.007C166.722 385.258 166.493 387.579 167.88 388.596C168.589 389.023 169.402 389.245 170.23 389.236C172.891 389.418 175.664 389.383 178.079 388.255C179.807 387.456 181.434 386.093 183.332 386.216C184.313 386.275 185.359 386.733 186.234 386.287C187.109 385.84 187.356 384.595 187.362 383.555C187.384 381.384 187.057 379.223 186.393 377.157C186.305 376.874 182.568 376.657 182.121 376.569L177.592 375.981C176.734 375.87 174.883 375.224 174.207 375.94C173.532 376.657 173.943 378.731 173.943 379.583Z" fill="#415A80"/>
<path d="M200.975 364.918C201.167 365.976 201.478 367.009 201.903 367.997C202.532 369.595 203.337 371.293 204.876 372.069C206.274 372.768 207.99 372.515 209.412 371.851C210.005 371.605 210.525 371.211 210.922 370.705C211.38 369.906 211.585 368.986 211.509 368.067C211.509 365.794 211.374 363.444 210.334 361.423C209.441 359.66 207.884 358.144 207.861 356.194L202.508 357.228C202.222 357.255 201.949 357.363 201.721 357.539C201.552 357.718 201.434 357.939 201.38 358.179C200.809 360.378 200.671 362.667 200.975 364.918Z" fill="#415A80"/>
<path d="M137.058 309.103C136.835 310.995 136.929 313.022 137.916 314.655C138.903 316.289 140.983 317.37 142.781 316.718C142.873 316.694 142.959 316.652 143.035 316.595C143.111 316.537 143.174 316.465 143.221 316.383C143.269 316.184 143.242 315.975 143.145 315.795C142.351 313.677 142.417 311.333 143.327 309.262C143.445 308.992 143.697 308.674 143.973 308.78C144.089 308.839 144.182 308.934 144.238 309.05C144.522 309.543 144.665 310.104 144.649 310.672C144.566 311.187 144.55 311.71 144.602 312.229C144.714 312.734 145.254 313.21 145.724 312.993C145.86 312.909 145.978 312.799 146.07 312.669C146.161 312.539 146.226 312.391 146.259 312.235C147.569 308.445 146.976 304.303 146.376 300.337C146.381 300.246 146.366 300.155 146.332 300.071C146.298 299.986 146.246 299.91 146.179 299.848C146.113 299.786 146.033 299.739 145.946 299.711C145.86 299.683 145.768 299.674 145.677 299.685C142.904 299.409 141.388 298.745 139.802 301.325C138.439 303.498 137.058 306.489 137.058 309.103Z" fill="#415A80"/>
<path d="M169.478 299.462C168.655 302.881 167.827 306.342 167.774 309.855C167.788 312.044 167.953 314.229 168.267 316.395L168.884 321.483C169.096 323.198 169.302 324.908 169.601 326.606C169.792 327.481 169.897 328.372 169.913 329.267C169.855 330.15 169.715 331.025 169.495 331.882C169.126 333.681 168.919 335.51 168.878 337.346C168.814 340.283 169.178 343.221 169.407 346.159C169.865 352.013 169.796 357.896 169.202 363.737C168.964 365.314 169.307 366.924 170.165 368.267C170.514 368.691 170.8 369.162 171.017 369.666C171.458 371.011 170.43 372.356 170.165 373.737C169.996 374.814 170.261 375.913 170.902 376.795C171.543 377.676 172.508 378.267 173.585 378.437C178.285 378.995 183.114 378.743 187.35 380.893C187.797 379.589 186.822 378.108 187.268 376.781C187.55 375.958 188.326 375.423 188.854 374.73C189.565 373.674 189.919 372.418 189.865 371.146C189.886 369.486 189.591 367.837 188.995 366.287C188.496 364.995 187.779 363.72 187.82 362.333C187.82 361.652 188.061 360.935 187.785 360.306C187.596 359.945 187.338 359.624 187.027 359.36C185.271 357.437 184.192 354.992 183.954 352.398C183.725 349.824 183.808 347.232 184.201 344.678C184.489 342.246 184.877 339.678 186.422 337.781C185.705 332.026 186.127 326.187 187.662 320.595C187.814 320.078 188.055 319.479 188.584 319.356C188.794 319.334 189.006 319.364 189.203 319.441C189.399 319.519 189.574 319.643 189.712 319.802C190.635 320.666 191.075 321.917 191.475 323.116C191.915 324.414 192.362 325.801 192.027 327.129C191.886 327.716 191.604 328.233 191.439 328.797C191.082 329.931 191.145 331.155 191.616 332.246C191.845 332.645 191.989 333.087 192.039 333.544C191.984 333.937 191.865 334.319 191.686 334.673C191.468 335.368 191.399 336.101 191.483 336.825C191.567 337.549 191.802 338.246 192.174 338.873C192.923 340.121 193.847 341.255 194.918 342.24C194.406 344.495 194.538 346.848 195.3 349.032C195.354 349.13 195.389 349.238 195.403 349.35C195.416 349.462 195.407 349.575 195.376 349.684C195.27 349.907 195 349.989 194.788 350.148C194.201 350.63 194.565 351.54 194.959 352.169C196.038 353.895 197.229 355.547 198.525 357.116C199.7 358.52 199.594 361.229 201.345 361.734C202.081 361.893 202.842 361.893 203.578 361.734C205.305 361.47 207.232 360.97 208.078 359.443C208.425 358.814 208.566 358.05 209.106 357.58C209.647 357.11 210.346 357.028 210.646 356.464C210.945 355.9 210.61 355.16 210.71 354.507C210.81 353.855 211.38 353.332 211.562 352.645C211.997 351.059 210.146 349.754 209.894 348.133C209.529 345.783 212.491 344.02 212.367 341.67C212.109 336.564 211.944 331.435 211.68 326.33C211.348 321.756 211.301 317.167 211.539 312.587C211.744 309.738 212.126 306.753 211.08 304.104C209.576 300.367 205.428 298.269 201.416 297.87C197.403 297.47 193.402 298.422 189.424 299.045C182.823 300.062 176.116 300.203 169.478 299.462Z" fill="#3F3D56"/>
<path d="M181.404 243.306C186.603 243.306 190.817 239.092 190.817 233.894C190.817 228.696 186.603 224.482 181.404 224.482C176.206 224.482 171.992 228.696 171.992 233.894C171.992 239.092 176.206 243.306 181.404 243.306Z" fill="#FBBEBE"/>
<path d="M177.574 245.063C177.254 245.808 176.716 246.438 176.032 246.871C175.347 247.304 174.547 247.52 173.737 247.49C173.396 248.9 174.213 250.321 175.147 251.432C177.087 253.689 179.594 255.388 182.409 256.354C185.224 257.319 188.246 257.517 191.163 256.925C192.298 256.722 193.375 256.273 194.318 255.609C195.59 254.548 196.443 253.069 196.727 251.438C196.997 249.817 197.074 248.17 196.956 246.532C196.989 246.208 196.897 245.884 196.698 245.627C196.463 245.445 196.172 245.35 195.875 245.357C193.889 245.181 191.815 245.104 190.07 244.129C188.325 243.154 187.086 240.95 187.926 239.141C187.791 239.423 184.36 239.558 183.907 239.617C182.491 239.816 181.075 240.04 179.665 240.298C178.988 240.335 178.318 240.462 177.674 240.674C176.822 241.115 177.139 240.897 177.339 241.697C177.638 242.919 178.079 243.794 177.574 245.063Z" fill="#FBBEBE"/>
<path d="M184.736 250.786C183.468 250.8 182.203 250.66 180.97 250.368C179.724 250.077 178.626 249.345 177.879 248.306C177.445 247.648 177.163 246.82 176.469 246.45C175.335 245.862 174.043 246.855 173.138 247.766C172.314 248.664 171.36 249.432 170.306 250.045C169.049 250.709 167.58 250.944 166.393 251.726C165.466 252.426 164.67 253.285 164.043 254.264L155.718 265.603C152.375 270.162 149.467 275.056 146.488 279.868C143.909 284.034 142.557 288.828 140.613 293.322C140.459 293.597 140.395 293.914 140.43 294.227C140.501 294.533 140.871 294.779 141.13 294.603C140.254 295.473 141.024 296.953 140.818 298.175C140.584 299.03 140.097 299.795 139.42 300.367C140.713 300.198 142.026 300.26 143.298 300.549C144.612 300.921 145.852 301.518 146.964 302.312C147.675 302.2 147.61 300.937 148.139 300.467C148.456 300.191 148.926 300.226 149.343 300.144C150.912 299.838 151.535 297.952 152.739 296.889C153.744 296.002 155.166 295.714 156.229 294.879C157.956 293.522 158.327 291.107 159.231 289.104C160.001 287.406 161.211 285.925 161.887 284.186C162.328 283.058 162.539 281.836 163.168 280.796C164.172 279.116 166.064 278.223 167.868 277.418C169.008 276.907 170.218 276.378 171.446 276.46C171.381 279.192 171.035 281.883 171.628 284.551C171.834 285.491 172.122 286.407 172.368 287.341C173.491 291.548 173.755 295.931 173.808 300.267C176.507 299.649 179.264 299.318 182.033 299.28C184.213 299.215 186.387 299.497 188.566 299.456C191.152 299.409 193.707 298.91 196.292 298.734C198.878 298.557 201.58 298.734 203.866 299.909C203.68 296.185 203.784 292.453 204.177 288.746L204.8 282.906C204.94 281.209 205.201 279.524 205.581 277.865C205.922 276.525 206.416 275.233 206.792 273.899C208.113 269.199 207.873 264.181 207.62 259.287C207.491 256.772 206.521 254.299 205.381 252.06C204.969 251.229 204.498 250.428 203.971 249.663C202.594 247.766 200.759 246.248 198.636 245.251C196.513 244.255 194.173 243.812 191.833 243.964C191.534 243.974 191.24 244.037 190.964 244.152C190.468 244.47 190.08 244.931 189.853 245.474C188.638 247.659 186.874 249.49 184.736 250.786Z" fill="#3F3D56"/>
<path d="M173.126 237.014C173.391 236.426 174.101 236.209 174.536 235.739C175.371 234.846 174.995 233.418 175.124 232.214C175.335 230.451 176.798 228.977 178.473 228.348C180.18 227.8 181.997 227.685 183.76 228.013C184.609 228.075 185.429 228.348 186.146 228.806C186.451 229.029 186.733 229.317 187.021 229.523C187.546 229.84 188.174 229.94 188.771 229.8C189.368 229.661 189.887 229.294 190.217 228.777C188.137 226.274 185.834 223.63 182.673 222.86C181.589 222.639 180.484 222.535 179.377 222.549C177.915 222.52 176.405 222.496 175.053 223.054C173.214 223.812 171.922 225.557 171.258 227.437C170.677 229.343 170.367 231.321 170.335 233.312C170.215 234.642 170.215 235.979 170.335 237.308C170.563 239.123 171.237 240.853 172.298 242.343C172.441 242.574 172.644 242.763 172.885 242.889C175.564 244.064 172.909 237.502 173.126 237.014Z" fill="#3F3D56"/>
<path d="M189.912 227.326C189.589 224.558 187.615 222.273 185.517 220.434C183.827 218.839 181.813 217.627 179.613 216.879C177.398 216.227 174.848 216.368 172.95 217.69C171.423 218.754 170.453 220.446 169.707 222.15C168.727 224.16 168.241 226.376 168.291 228.612C168.438 230.833 169.519 233.083 171.446 234.206C172.139 233.183 173.344 232.654 174.501 232.237C179.546 230.323 184.69 228.684 189.912 227.326Z" fill="#FED253"/>
<path opacity="0.1" d="M172.092 226.174C172.28 226.174 172.404 226.368 172.498 226.527C172.976 227.272 173.387 228.058 173.725 228.877C173.038 229.024 171.857 229.188 171.516 228.583C171.334 228.277 171.552 226.145 172.092 226.174Z" fill="black"/>
<path opacity="0.1" d="M185.482 224.846C185.341 224.981 185.176 224.705 185.176 224.505V222.226C185.173 222.162 185.187 222.099 185.218 222.044C185.242 222.016 185.272 221.993 185.305 221.977C185.338 221.961 185.374 221.952 185.411 221.95C185.887 221.897 186.281 222.302 186.586 222.69C187.05 223.318 187.453 223.989 187.791 224.693L185.306 224.617" fill="black"/>
<path d="M216.498 262.595C217.038 262.082 217.616 261.608 218.225 261.179C219.852 260.092 221.821 259.663 223.648 258.97C225.475 258.276 227.332 257.154 228.043 255.333C228.398 254.194 228.514 252.994 228.383 251.808C228.4 251.311 228.312 250.817 228.125 250.357C227.901 249.95 227.583 249.603 227.196 249.346C224.717 247.513 221.392 247.366 218.313 247.554C211.526 247.975 204.873 249.636 198.684 252.454C198.357 252.562 198.07 252.767 197.861 253.042C197.741 253.296 197.686 253.577 197.703 253.858C197.593 255.591 197.819 257.328 198.367 258.976C199.177 261.067 200.846 262.753 201.545 264.886C201.862 265.844 201.968 266.86 202.244 267.824C202.471 268.819 203.059 269.694 203.895 270.28C206.216 271.666 208.407 269.804 210.017 268.358L216.498 262.595Z" fill="#3F3D56"/>
<path d="M186.105 270.732L183.126 264.234C182.689 263.334 182.312 262.405 181.998 261.455C181.657 260.321 181.493 259.146 181.175 258.006C180.129 254.211 177.491 251.05 176.205 247.331C176.123 246.995 175.958 246.686 175.723 246.432C175.535 246.299 175.32 246.209 175.094 246.169C174.868 246.128 174.635 246.138 174.413 246.197C172.615 246.508 171.211 247.877 169.566 248.653C168.802 249.005 167.979 249.24 167.216 249.646C166.834 249.827 166.496 250.088 166.224 250.411C165.952 250.734 165.753 251.113 165.641 251.52C165.459 252.419 165.905 253.283 166.281 254.158C167.88 257.765 168.244 261.796 168.314 265.744C168.367 268.4 168.232 271.249 166.663 273.382C163.649 277.494 165.576 283.534 166.704 288.511C166.84 289.098 166.998 289.733 167.092 290.355C167.192 291.135 167.237 291.92 167.227 292.706C167.227 295.344 167.08 298.064 165.976 300.455C167.066 301.035 168.268 301.376 169.501 301.454C172.913 301.889 176.338 302.194 179.777 302.37C180.854 302.472 181.941 302.416 183.002 302.206C184.263 301.865 185.374 301.114 186.161 300.071C186.947 299.029 187.363 297.754 187.344 296.448C187.532 298.076 187.879 299.844 189.06 300.972C190.241 302.1 191.962 302.27 193.566 302.359C198.093 302.599 202.632 302.471 207.138 301.977C207.426 301.964 207.708 301.898 207.972 301.783C208.842 301.348 208.889 300.149 208.818 299.186C208.689 297.382 208.554 295.579 208.337 293.787C208.152 292.644 208.058 291.489 208.055 290.332C208.144 289.142 208.341 287.962 208.642 286.807C209.429 283.141 210.052 279.398 209.788 275.644C209.683 274.729 209.646 273.808 209.676 272.888C209.829 270.814 210.922 268.84 210.716 266.778C210.129 260.715 209.653 254.493 207.961 248.641C207.655 247.595 207.267 246.473 206.357 245.874C205.182 245.087 203.531 245.498 202.185 244.998C201.554 244.705 200.954 244.348 200.393 243.935C199.176 243.174 197.78 242.744 196.345 242.689C195.264 242.648 194.06 242.889 193.408 243.759C193.106 244.248 192.906 244.794 192.82 245.363C191.968 248.947 190.969 252.489 189.971 256.032L189.013 259.428L186.445 268.546C186.193 269.516 186.363 269.816 186.105 270.732Z" fill="#415A80"/>
<path d="M201.128 235.157L257.959 294.879V299.944H232.619L189.912 244.205" fill="#F1C0C0"/>
<path opacity="0.1" d="M201.128 235.157L257.959 294.879V299.944H232.619L189.912 244.205" fill="black"/>
<path opacity="0.1" d="M190.817 243.418L190.999 243.483L232.984 294.879H257.959V299.944H232.619L189.912 244.205L190.817 243.418Z" fill="black"/>
<path d="M197.356 244.675C195.299 245.574 193.014 246.726 192.397 248.888C192.275 249.267 192.249 249.671 192.321 250.063C192.471 250.524 192.758 250.928 193.142 251.223C193.527 251.518 193.993 251.689 194.477 251.714C195.444 251.737 196.406 251.561 197.303 251.197L209.435 247.19C209.764 247.084 210.14 246.925 210.223 246.602C210.244 246.399 210.203 246.194 210.105 246.015C209.729 245.098 209.359 243.224 208.572 242.584C207.925 242.067 206.645 242.249 205.863 242.261C202.855 242.284 200.029 243.5 197.356 244.675Z" fill="#415A80"/>
<path d="M208.172 247.666C210.216 247.66 212.248 247.975 214.194 248.6C216.149 249.235 217.88 250.417 219.182 252.008C219.561 252.452 219.831 252.979 219.97 253.547C220.087 254.134 222.002 254.487 221.579 254.886C222.866 254.681 222.561 255.286 223.865 255.274C225.169 255.262 226.579 254.928 227.361 253.888C227.904 253.033 228.145 252.022 228.048 251.015C228.065 250.317 227.933 249.624 227.66 248.982C227.073 247.748 225.721 247.084 224.476 246.514L213.983 241.714C213.374 241.39 212.721 241.159 212.044 241.027C211.474 240.973 210.9 240.987 210.334 241.068L205.581 241.614C206.621 242.287 207.467 243.219 208.036 244.318C208.606 245.417 208.88 246.646 208.83 247.883" fill="#3F3D56"/>
</g>
<defs>
<clipPath id="clip0_487_391">
<rect width="692" height="425.645" fill="white"/>
</clipPath>
</defs>
</svg>
